<svg width="21" height="20" viewBox="0 0 21 20" fill="none" xmlns="http://www.w3.org/2000/svg">
<g id="&#231;&#174;&#161;&#231;&#144;&#134;&#229;&#145;&#152;">
<path id="Rectangle 197" d="M6.79999 1.25C6.79999 0.973858 7.02385 0.75 7.29999 0.75H10.8C13.0091 0.75 14.8 2.54086 14.8 4.75C14.8 6.95914 13.0091 8.75 10.8 8.75C8.59085 8.75 6.79999 6.95914 6.79999 4.75V1.25Z" stroke="#666666"/>
<path id="Rectangle 200" d="M0.799988 14.75C0.799988 12.817 2.36699 11.25 4.29999 11.25H16.3C18.233 11.25 19.8 12.817 19.8 14.75V17.75C19.8 18.5784 19.1284 19.25 18.3 19.25H2.29999C1.47156 19.25 0.799988 18.5784 0.799988 17.75V14.75Z" stroke="#666666"/>
<rect id="Rectangle 201" x="9.29999" y="13.75" width="1.5" height="3" rx="0.75" fill="#666666"/>
</g>
</svg>
