<svg width="20" height="20" viewBox="0 0 20 20" fill="none" xmlns="http://www.w3.org/2000/svg">
<g id="&#231;&#189;&#145;&#231;&#171;&#153;" clip-path="url(#clip0_1182_12587)">
<rect id="Rectangle 214" x="11" y="7" width="8" height="8" rx="2" fill="#B1D7FF"/>
<rect id="Rectangle 215" x="0.75" y="0.75" width="18.5" height="13.5" rx="1.25" stroke="#007AFF" stroke-width="1.5"/>
<rect id="Rectangle 212" x="6.5" y="3.5" width="3" height="3" rx="1.5" stroke="#007AFF"/>
<path id="Rectangle 217" d="M3.5 11C3.5 9.61929 4.61929 8.5 6 8.5H10C11.3807 8.5 12.5 9.61929 12.5 11C12.5 11.2761 12.2761 11.5 12 11.5H4C3.72386 11.5 3.5 11.2761 3.5 11Z" stroke="#007AFF"/>
<rect id="Rectangle 213" x="6" y="18" width="8" height="1.5" rx="0.75" fill="#007AFF"/>
<rect id="Rectangle 216" x="9" y="19" width="5" height="1.5" rx="0.75" transform="rotate(-90 9 19)" fill="#007AFF"/>
</g>
<defs>
<clipPath id="clip0_1182_12587">
<rect width="20" height="20" fill="white"/>
</clipPath>
</defs>
</svg>
