<svg width="21" height="20" viewBox="0 0 21 20" fill="none" xmlns="http://www.w3.org/2000/svg">
<g id="&#231;&#174;&#161;&#231;&#144;&#134;&#229;&#145;&#152;">
<path id="Rectangle 197" d="M6.2998 1.25C6.2998 0.697715 6.74752 0.25 7.2998 0.25H10.7998C13.2851 0.25 15.2998 2.26472 15.2998 4.75C15.2998 7.23528 13.2851 9.25 10.7998 9.25C8.31452 9.25 6.2998 7.23528 6.2998 4.75V1.25Z" fill="url(#paint0_linear_1822_4655)"/>
<path id="Rectangle 200" d="M0.299805 14.75C0.299805 12.5409 2.09067 10.75 4.2998 10.75H16.2998C18.5089 10.75 20.2998 12.5409 20.2998 14.75V17.75C20.2998 18.8546 19.4044 19.75 18.2998 19.75H2.29981C1.19524 19.75 0.299805 18.8546 0.299805 17.75V14.75Z" fill="url(#paint1_linear_1822_4655)"/>
<rect id="Rectangle 201" x="9.2998" y="13.75" width="1.5" height="3" rx="0.75" fill="#48C0EE"/>
</g>
<defs>
<linearGradient id="paint0_linear_1822_4655" x1="10.7998" y1="0.25" x2="10.7998" y2="9.25" gradientUnits="userSpaceOnUse">
<stop stop-color="white"/>
<stop offset="0.6" stop-color="#B8EBFF"/>
</linearGradient>
<linearGradient id="paint1_linear_1822_4655" x1="10.2998" y1="10.75" x2="10.2998" y2="19.75" gradientUnits="userSpaceOnUse">
<stop stop-color="white"/>
<stop offset="0.6" stop-color="#B8EBFF"/>
</linearGradient>
</defs>
</svg>
