<svg width="20" height="20" viewBox="0 0 20 20" fill="none" xmlns="http://www.w3.org/2000/svg">
<g id="&#229;&#173;&#166;&#229;&#160;&#130;">
<rect id="Rectangle 214" x="12" y="10" width="8" height="8" rx="2" fill="#9BEFAE"/>
<g id="Rectangle 211">
<mask id="path-2-inside-1_1182_12566" fill="white">
<path d="M20 2C20 1.44772 19.5523 1 19 1H13.5C11.2909 1 9.5 2.79086 9.5 5V17C9.5 18.1046 10.3954 19 11.5 19H19C19.5523 19 20 18.5523 20 18V2Z"/>
</mask>
<path d="M20 2C20 1.44772 19.5523 1 19 1H13.5C11.2909 1 9.5 2.79086 9.5 5V17C9.5 18.1046 10.3954 19 11.5 19H19C19.5523 19 20 18.5523 20 18V2Z" stroke="#21AA3F" stroke-width="3" mask="url(#path-2-inside-1_1182_12566)"/>
</g>
<g id="Rectangle 215">
<mask id="path-3-inside-2_1182_12566" fill="white">
<path d="M0.5 2C0.5 1.44772 0.947715 1 1.5 1H7C9.20914 1 11 2.79086 11 5V17C11 18.1046 10.1046 19 9 19H1.5C0.947715 19 0.5 18.5523 0.5 18V2Z"/>
</mask>
<path d="M0.5 2C0.5 1.44772 0.947715 1 1.5 1H7C9.20914 1 11 2.79086 11 5V17C11 18.1046 10.1046 19 9 19H1.5C0.947715 19 0.5 18.5523 0.5 18V2Z" stroke="#21AA3F" stroke-width="3" mask="url(#path-3-inside-2_1182_12566)"/>
</g>
<rect id="Rectangle 212" x="2" y="7" width="4" height="1.5" rx="0.75" fill="#21AA3F"/>
<rect id="Rectangle 213" x="14" y="13" width="4" height="1.5" rx="0.75" fill="#21AA3F"/>
</g>
</svg>
