<svg width="20" height="20" viewBox="0 0 20 20" fill="none" xmlns="http://www.w3.org/2000/svg">
<g id="&#229;&#133;&#179;&#228;&#186;&#142;&#231;&#179;&#187;&#231;&#187;&#159;" clip-path="url(#clip0_1351_8276)">
<path id="Polygon 7" d="M11 7.07735C11.6188 6.72008 12.3812 6.72008 13 7.07735L16.1962 8.92265C16.815 9.27992 17.1962 9.94017 17.1962 10.6547V14.3453C17.1962 15.0598 16.815 15.7201 16.1962 16.0774L13 17.9226C12.3812 18.2799 11.6188 18.2799 11 17.9226L7.80385 16.0774C7.18505 15.7201 6.80385 15.0598 6.80385 14.3453V10.6547C6.80385 9.94017 7.18505 9.27992 7.80385 8.92265L11 7.07735Z" fill="url(#paint0_linear_1351_8276)"/>
<path id="Polygon 6" d="M9.5 1.44338C9.8094 1.26474 10.1906 1.26474 10.5 1.44338L17.1603 5.28868C17.4697 5.46731 17.6603 5.79743 17.6603 6.1547V13.8453C17.6603 14.2026 17.4697 14.5327 17.1603 14.7113L10.5 18.5566C10.1906 18.7353 9.8094 18.7353 9.5 18.5566L2.83975 14.7113C2.53034 14.5327 2.33975 14.2026 2.33975 13.8453V6.1547C2.33975 5.79744 2.53034 5.46731 2.83975 5.28868L9.5 1.44338Z" stroke="#333333" stroke-width="2"/>
<rect id="Rectangle 293" x="9.5" y="6" width="1" height="5" rx="0.5" stroke="#333333"/>
<rect id="Rectangle 298" x="9" y="12.5" width="2" height="2" rx="1" fill="#333333"/>
</g>
<defs>
<linearGradient id="paint0_linear_1351_8276" x1="12" y1="6.5" x2="12" y2="18.5" gradientUnits="userSpaceOnUse">
<stop stop-color="#EAF9FF"/>
<stop offset="1" stop-color="#14BFFF"/>
</linearGradient>
<clipPath id="clip0_1351_8276">
<rect width="20" height="20" fill="white"/>
</clipPath>
</defs>
</svg>
