<svg width="24" height="24" viewBox="0 0 24 24" fill="none" xmlns="http://www.w3.org/2000/svg">
<g id="&#229;&#155;&#190;&#230;&#160;&#135;/&#230;&#163;&#128;&#230;&#181;&#139;&#230;&#155;&#180;&#230;&#150;&#176;">
<rect id="Rectangle 350" width="5" height="1.5" rx="0.75" transform="matrix(0.707107 0.707107 0.707107 -0.707107 19 20)" fill="#666666"/>
<circle id="Ellipse 68" cx="12" cy="12" r="10.25" stroke="#666666" stroke-width="1.5"/>
<circle id="Ellipse 69" cx="12" cy="12" r="7.25" stroke="#666666" stroke-width="1.5"/>
<rect id="Rectangle 347" x="7.90039" y="11.5" width="5.38064" height="1.5" rx="0.75" transform="rotate(-45 7.90039 11.5)" fill="#666666"/>
<path id="Rectangle 349" d="M11 8.75C11 8.33579 11.3358 8 11.75 8V8C12.1642 8 12.5 8.33579 12.5 8.75V15.25C12.5 15.6642 12.1642 16 11.75 16V16C11.3358 16 11 15.6642 11 15.25V8.75Z" fill="#666666"/>
<rect id="Rectangle 348" width="5.07612" height="1.5" rx="0.75" transform="matrix(0.707107 0.707107 0.707107 -0.707107 10.7441 8.74609)" fill="#666666"/>
</g>
</svg>
