<svg width="40" height="40" viewBox="0 0 40 40" fill="none" xmlns="http://www.w3.org/2000/svg">
<g id="&#229;&#155;&#190;&#230;&#160;&#135;/&#230;&#149;&#176;&#230;&#141;&#174;-&#231;&#149;&#153;&#232;&#168;&#128;" clip-path="url(#clip0_1328_12270)">
<g id="Union">
<mask id="path-1-inside-1_1328_12270" fill="white">
<path fill-rule="evenodd" clip-rule="evenodd" d="M36.9896 10C38.6465 10 39.9896 11.3431 39.9896 13V25.1304C39.9969 25.1812 40.0005 25.2336 40 25.2874L39.9896 26.3745V34H39.9171L39.8818 37.7113C39.8745 38.4769 39.0448 38.9506 38.3818 38.5679L30.47 34H12.9896C11.3328 34 9.98961 32.6569 9.98961 31V13C9.98961 11.3431 11.3328 10 12.9896 10H36.9896Z"/>
</mask>
<path d="M39.9896 25.1304L37.02 25.5566L36.9896 25.3446V25.1304H39.9896ZM40 25.2874L37.0001 25.2588L40 25.2874ZM39.9896 26.3745H36.9896V26.3603L36.9897 26.346L39.9896 26.3745ZM39.9896 34H42.9896V37H39.9896V34ZM39.9171 34L36.9172 33.9715L36.9455 31H39.9171V34ZM39.8818 37.7113L42.8816 37.7399L39.8818 37.7113ZM38.3818 38.5679L36.8818 41.1659L36.8818 41.1659L38.3818 38.5679ZM30.47 34V31H31.2739L31.97 31.4019L30.47 34ZM36.9896 13V7C40.3033 7 42.9896 9.68629 42.9896 13H36.9896ZM36.9896 25.1304V13H42.9896V25.1304H36.9896ZM37.0001 25.2588C36.9992 25.3563 37.0056 25.4559 37.02 25.5566L42.9592 24.7041C42.9882 24.9064 43.0018 25.1109 42.9998 25.3159L37.0001 25.2588ZM36.9897 26.346L37.0001 25.2588L42.9998 25.3159L42.9895 26.4031L36.9897 26.346ZM36.9896 34V26.3745H42.9896V34H36.9896ZM39.9171 31H39.9896V37H39.9171V31ZM36.8819 37.6828L36.9172 33.9715L42.9169 34.0285L42.8816 37.7399L36.8819 37.6828ZM39.8818 35.9698C38.5558 35.2042 36.8965 36.1517 36.8819 37.6828L42.8816 37.7399C42.8525 40.8021 39.5338 42.6971 36.8818 41.1659L39.8818 35.9698ZM31.97 31.4019L39.8818 35.9698L36.8818 41.1659L28.97 36.5981L31.97 31.4019ZM12.9896 31H30.47V37H12.9896V31ZM12.9896 31V37C9.6759 37 6.98961 34.3137 6.98961 31H12.9896ZM12.9896 13V31H6.98961V13H12.9896ZM12.9896 13H6.98961C6.98961 9.68629 9.6759 7 12.9896 7V13ZM36.9896 13H12.9896V7H36.9896V13Z" fill="#28D29A" mask="url(#path-1-inside-1_1328_12270)"/>
</g>
<g id="Union_2">
<mask id="path-3-inside-2_1328_12270" fill="white">
<path fill-rule="evenodd" clip-rule="evenodd" d="M3 3C1.34315 3 3.23169e-07 4.34315 3.23169e-07 6V18.1304C-0.0072938 18.1812 -0.0108546 18.2336 -0.0103429 18.2874L3.23169e-07 19.3745V27H0.0725474L0.107856 30.7113C0.11514 31.4769 0.944802 31.9506 1.60781 31.5679L9.51958 27H27C28.6569 27 30 25.6569 30 24V6C30 4.34315 28.6569 3 27 3H3Z"/>
</mask>
<path fill-rule="evenodd" clip-rule="evenodd" d="M3 3C1.34315 3 3.23169e-07 4.34315 3.23169e-07 6V18.1304C-0.0072938 18.1812 -0.0108546 18.2336 -0.0103429 18.2874L3.23169e-07 19.3745V27H0.0725474L0.107856 30.7113C0.11514 31.4769 0.944802 31.9506 1.60781 31.5679L9.51958 27H27C28.6569 27 30 25.6569 30 24V6C30 4.34315 28.6569 3 27 3H3Z" fill="#FFF8F5"/>
<path d="M3.23169e-07 18.1304L2.96956 18.5566L3 18.3446V18.1304H3.23169e-07ZM-0.0103429 18.2874L2.98952 18.2588L-0.0103429 18.2874ZM3.23169e-07 19.3745H3V19.3603L2.99986 19.346L3.23169e-07 19.3745ZM3.23169e-07 27H-3V30H3.23169e-07V27ZM0.0725474 27L3.07241 26.9715L3.04414 24H0.0725474V27ZM0.107856 30.7113L-2.89201 30.7399L0.107856 30.7113ZM1.60781 31.5679L3.10781 34.1659L3.10781 34.1659L1.60781 31.5679ZM9.51958 27V24H8.71573L8.01958 24.4019L9.51958 27ZM3 6V0C-0.313708 0 -3 2.68629 -3 6H3ZM3 18.1304V6H-3V18.1304H3ZM2.98952 18.2588C2.99045 18.3563 2.98402 18.4559 2.96956 18.5566L-2.96956 17.7041C-2.9986 17.9064 -3.01216 18.1109 -3.01021 18.3159L2.98952 18.2588ZM2.99986 19.346L2.98952 18.2588L-3.01021 18.3159L-2.99986 19.4031L2.99986 19.346ZM3 27V19.3745H-3V27H3ZM0.0725474 24H3.23169e-07V30H0.0725474V24ZM3.10772 30.6828L3.07241 26.9715L-2.92732 27.0285L-2.89201 30.7399L3.10772 30.6828ZM0.107816 28.9698C1.43383 28.2042 3.09315 29.1517 3.10772 30.6828L-2.89201 30.7399C-2.86287 33.8021 0.455778 35.6971 3.10781 34.1659L0.107816 28.9698ZM8.01958 24.4019L0.107812 28.9698L3.10781 34.1659L11.0196 29.5981L8.01958 24.4019ZM27 24H9.51958V30H27V24ZM27 24V30C30.3137 30 33 27.3137 33 24H27ZM27 6V24H33V6H27ZM27 6H33C33 2.68629 30.3137 0 27 0V6ZM3 6H27V0H3V6Z" fill="#28D29A" mask="url(#path-3-inside-2_1328_12270)"/>
</g>
<rect id="Rectangle 312" width="3" height="10" rx="1.5" transform="matrix(0 -1 -1 0 14 13)" fill="#28D29A"/>
<rect id="Rectangle 313" x="4" y="18" width="3" height="20" rx="1.5" transform="rotate(-90 4 18)" fill="#28D29A"/>
</g>
<defs>
<clipPath id="clip0_1328_12270">
<rect width="40" height="40" fill="white"/>
</clipPath>
</defs>
</svg>
