<svg width="20" height="20" viewBox="0 0 20 20" fill="none" xmlns="http://www.w3.org/2000/svg">
<g id="&#231;&#179;&#187;&#231;&#187;&#159;&#230;&#181;&#133;&#232;&#137;&#178;&#229;&#155;&#190;&#230;&#160;&#135;/&#229;&#186;&#148;&#231;&#148;&#168;&#230;&#143;&#146;&#228;&#187;&#182;" clip-path="url(#clip0_1296_6706)">
<g id="Group 17">
<path id="Polygon 5" d="M8.375 1.22687C8.76175 1.00358 9.23825 1.00358 9.625 1.22687L16.2853 5.07217C16.672 5.29546 16.9103 5.70812 16.9103 6.1547V13.8453C16.9103 14.2919 16.672 14.7045 16.2853 14.9278L9.625 18.7731C9.23825 18.9964 8.76175 18.9964 8.375 18.7731L1.71475 14.9278C1.32799 14.7045 1.08975 14.2919 1.08975 13.8453V6.1547C1.08975 5.70812 1.32799 5.29546 1.71475 5.07217L8.375 1.22687Z" stroke="#666666" stroke-width="1.5"/>
<rect id="Rectangle 281" x="7.94971" y="11.0098" width="6" height="1.5" rx="0.75" transform="rotate(-45 7.94971 11.0098)" fill="#666666"/>
<rect id="Rectangle 282" x="8.94971" y="12.0098" width="6" height="1.5" rx="0.75" transform="rotate(-135 8.94971 12.0098)" fill="#666666"/>
<rect id="Rectangle 283" x="8.34973" y="16.0098" width="6" height="1.5" rx="0.75" transform="rotate(-90 8.34973 16.0098)" fill="#666666"/>
</g>
</g>
<defs>
<clipPath id="clip0_1296_6706">
<rect width="20" height="20" fill="white"/>
</clipPath>
</defs>
</svg>
