<svg width="20" height="20" viewBox="0 0 20 20" fill="none" xmlns="http://www.w3.org/2000/svg">
<g id="&#231;&#179;&#187;&#231;&#187;&#159;&#230;&#181;&#133;&#232;&#137;&#178;&#229;&#155;&#190;&#230;&#160;&#135;/&#230;&#160;&#143;&#231;&#155;&#174;&#231;&#174;&#161;&#231;&#144;&#134;&#233;&#128;&#137;&#228;&#184;&#173;" clip-path="url(#clip0_1305_6065)">
<g id="Group 12">
<rect id="Rectangle 225" width="20" height="20" rx="2" fill="url(#paint0_linear_1305_6065)"/>
<path id="Rectangle 224" d="M7.125 14.25C7.125 14.1119 7.23693 14 7.375 14H15.875C16.0131 14 16.125 14.1119 16.125 14.25C16.125 14.3881 16.0131 14.5 15.875 14.5H7.375C7.23693 14.5 7.125 14.3881 7.125 14.25Z" fill="white" stroke="white" stroke-width="0.75"/>
<path id="Rectangle 221" d="M4.25 14.25C4.25 14.1119 4.36193 14 4.5 14C4.63807 14 4.75 14.1119 4.75 14.25C4.75 14.3881 4.63807 14.5 4.5 14.5C4.36193 14.5 4.25 14.3881 4.25 14.25Z" fill="white" stroke="white" stroke-width="0.75"/>
<path id="Rectangle 223" d="M7.125 9.55078C7.125 9.41271 7.23693 9.30078 7.375 9.30078H15.875C16.0131 9.30078 16.125 9.41271 16.125 9.55078C16.125 9.68885 16.0131 9.80078 15.875 9.80078H7.375C7.23693 9.80078 7.125 9.68885 7.125 9.55078Z" fill="white" stroke="white" stroke-width="0.75"/>
<path id="Rectangle 220" d="M4.25 9.55078C4.25 9.41271 4.36193 9.30078 4.5 9.30078C4.63807 9.30078 4.75 9.41271 4.75 9.55078C4.75 9.68885 4.63807 9.80078 4.5 9.80078C4.36193 9.80078 4.25 9.68885 4.25 9.55078Z" fill="white" stroke="white" stroke-width="0.75"/>
<path id="Rectangle 222" d="M7.125 5.00195C7.125 4.86388 7.23693 4.75195 7.375 4.75195H15.875C16.0131 4.75195 16.125 4.86388 16.125 5.00195C16.125 5.14002 16.0131 5.25195 15.875 5.25195H7.375C7.23693 5.25195 7.125 5.14002 7.125 5.00195Z" fill="white" stroke="white" stroke-width="0.75"/>
<path id="Rectangle 231" d="M4.25 5.00195C4.25 4.86388 4.36193 4.75195 4.5 4.75195C4.63807 4.75195 4.75 4.86388 4.75 5.00195C4.75 5.14002 4.63807 5.25195 4.5 5.25195C4.36193 5.25195 4.25 5.14002 4.25 5.00195Z" fill="white" stroke="white" stroke-width="0.75"/>
</g>
</g>
<defs>
<linearGradient id="paint0_linear_1305_6065" x1="10" y1="0" x2="10" y2="20" gradientUnits="userSpaceOnUse">
<stop stop-color="#9AE3FF"/>
<stop offset="1" stop-color="#31C6FF"/>
</linearGradient>
<clipPath id="clip0_1305_6065">
<rect width="20" height="20" fill="white"/>
</clipPath>
</defs>
</svg>
