<svg width="20" height="20" viewBox="0 0 20 20" fill="none" xmlns="http://www.w3.org/2000/svg">
<g id="&#231;&#179;&#187;&#231;&#187;&#159;&#229;&#155;&#190;&#230;&#160;&#135;/&#230;&#160;&#143;&#231;&#155;&#174;&#229;&#155;&#190;&#230;&#160;&#135;" clip-path="url(#clip0_1216_19585)">
<g id="Group 12">
<rect id="Rectangle 225" x="0.75" y="0.75" width="18.5" height="18.5" rx="1.25" stroke="#666666" stroke-width="1.5"/>
<path id="Rectangle 224" d="M7.125 14.4375C7.125 14.1959 7.32088 14 7.5625 14H15.6875C15.9291 14 16.125 14.1959 16.125 14.4375C16.125 14.6791 15.9291 14.875 15.6875 14.875H7.5625C7.32088 14.875 7.125 14.6791 7.125 14.4375Z" stroke="#666666" stroke-width="0.9375"/>
<path id="Rectangle 221" d="M4.25 14.44C4.25 14.1966 4.44761 14 4.6875 14C4.92739 14 5.125 14.1966 5.125 14.44C5.125 14.6834 4.92739 14.88 4.6875 14.88C4.44761 14.88 4.25 14.6834 4.25 14.44Z" stroke="#666666" stroke-width="0.9375"/>
<path id="Rectangle 223" d="M7.125 9.7398C7.125 9.4968 7.32199 9.2998 7.565 9.2998H15.685C15.928 9.2998 16.125 9.4968 16.125 9.7398C16.125 9.98281 15.928 10.1798 15.685 10.1798H7.565C7.32199 10.1798 7.125 9.98281 7.125 9.7398Z" stroke="#666666" stroke-width="0.94"/>
<path id="Rectangle 220" d="M4.25 9.7398C4.25 9.49645 4.44761 9.2998 4.6875 9.2998C4.92739 9.2998 5.125 9.49645 5.125 9.7398C5.125 9.98316 4.92739 10.1798 4.6875 10.1798C4.44761 10.1798 4.25 9.98316 4.25 9.7398Z" stroke="#666666" stroke-width="0.9375"/>
<path id="Rectangle 222" d="M7.125 5.18945C7.125 4.94783 7.32088 4.75195 7.5625 4.75195H15.6875C15.9291 4.75195 16.125 4.94783 16.125 5.18945C16.125 5.43108 15.9291 5.62695 15.6875 5.62695H7.5625C7.32088 5.62695 7.125 5.43108 7.125 5.18945Z" stroke="#666666" stroke-width="0.9375"/>
<path id="Rectangle 231" d="M4.25 5.19195C4.25 4.94859 4.44761 4.75195 4.6875 4.75195C4.92739 4.75195 5.125 4.94859 5.125 5.19195C5.125 5.43531 4.92739 5.63195 4.6875 5.63195C4.44761 5.63195 4.25 5.43531 4.25 5.19195Z" stroke="#666666" stroke-width="0.9375"/>
</g>
</g>
<defs>
<clipPath id="clip0_1216_19585">
<rect width="20" height="20" fill="white"/>
</clipPath>
</defs>
</svg>
