<svg width="20" height="20" viewBox="0 0 20 20" fill="none" xmlns="http://www.w3.org/2000/svg">
<g id="&#231;&#179;&#187;&#231;&#187;&#159;&#229;&#155;&#190;&#230;&#160;&#135;/&#229;&#143;&#141;&#233;&#166;&#136;&#229;&#155;&#190;&#230;&#160;&#135;" clip-path="url(#clip0_1216_19617)">
<g id="Group 13">
<g id="Union">
<mask id="path-1-inside-1_1216_19617" fill="white">
<path fill-rule="evenodd" clip-rule="evenodd" d="M2 0C0.895431 0 0 0.89543 0 2V15H3.24109e-05L5.26128e-05 19.1678C5.70412e-05 20.0814 1.12426 20.5165 1.7394 19.8411L6.14813 15H18C19.1046 15 20 14.1046 20 13V2C20 0.895431 19.1046 0 18 0H2Z"/>
</mask>
<path d="M0 15H-1.5V16.5H0V15ZM3.24109e-05 15L1.50003 15L1.50003 13.5H3.24109e-05V15ZM5.26128e-05 19.1678L1.50005 19.1677L5.26128e-05 19.1678ZM1.7394 19.8411L2.84843 20.8511H2.84843L1.7394 19.8411ZM6.14813 15V13.5H5.48536L5.0391 13.99L6.14813 15ZM1.5 2C1.5 1.72386 1.72386 1.5 2 1.5V-1.5C0.0670036 -1.5 -1.5 0.0670031 -1.5 2H1.5ZM1.5 15V2H-1.5V15H1.5ZM3.24109e-05 13.5H0V16.5H3.24109e-05V13.5ZM-1.49997 15L-1.49995 19.1678L1.50005 19.1677L1.50003 15L-1.49997 15ZM-1.49995 19.1678C-1.49994 21.4518 1.31056 22.5397 2.84843 20.8511L0.630378 18.8311C0.937952 18.4934 1.50005 18.7109 1.50005 19.1677L-1.49995 19.1678ZM2.84843 20.8511L7.25716 16.01L5.0391 13.99L0.630377 18.8311L2.84843 20.8511ZM18 13.5H6.14813V16.5H18V13.5ZM18.5 13C18.5 13.2761 18.2761 13.5 18 13.5V16.5C19.933 16.5 21.5 14.933 21.5 13H18.5ZM18.5 2V13H21.5V2H18.5ZM18 1.5C18.2761 1.5 18.5 1.72386 18.5 2H21.5C21.5 0.0670031 19.933 -1.5 18 -1.5V1.5ZM2 1.5H18V-1.5H2V1.5Z" fill="#666666" mask="url(#path-1-inside-1_1216_19617)"/>
</g>
<path id="Rectangle 232" d="M4.875 9.5C4.875 9.36193 4.98693 9.25 5.125 9.25H9.875C10.0131 9.25 10.125 9.36193 10.125 9.5C10.125 9.63807 10.0131 9.75 9.875 9.75H5.125C4.98693 9.75 4.875 9.63807 4.875 9.5Z" stroke="#666666" stroke-width="0.75"/>
<path id="Rectangle 233" d="M4.875 5.00195C4.875 4.86388 4.98693 4.75195 5.125 4.75195H13.625C13.7631 4.75195 13.875 4.86388 13.875 5.00195C13.875 5.14002 13.7631 5.25195 13.625 5.25195H5.125C4.98693 5.25195 4.875 5.14002 4.875 5.00195Z" stroke="#666666" stroke-width="0.75"/>
</g>
</g>
<defs>
<clipPath id="clip0_1216_19617">
<rect width="20" height="20" fill="white"/>
</clipPath>
</defs>
</svg>
