<svg width="20" height="20" viewBox="0 0 20 20" fill="none" xmlns="http://www.w3.org/2000/svg">
<g id="&#231;&#179;&#187;&#231;&#187;&#159;&#230;&#181;&#133;&#232;&#137;&#178;&#229;&#155;&#190;&#230;&#160;&#135;/&#229;&#143;&#141;&#233;&#166;&#136;&#228;&#186;&#146;&#229;&#138;&#168;&#233;&#128;&#137;&#228;&#184;&#173;" clip-path="url(#clip0_1305_6162)">
<g id="Group 13">
<path id="Union" fill-rule="evenodd" clip-rule="evenodd" d="M2 0C0.895431 0 0 0.895429 0 2V14.8748H3.24156e-05L5.25852e-05 19.0011C5.70409e-05 19.9127 1.12001 20.3489 1.73659 19.6775L6.14724 14.8748H18C19.1046 14.8748 20 13.9793 20 12.8748V2C20 0.895431 19.1046 0 18 0H2Z" fill="url(#paint0_linear_1305_6162)"/>
<path id="Rectangle 232" d="M4.875 9.5C4.875 9.36193 4.98693 9.25 5.125 9.25H9.875C10.0131 9.25 10.125 9.36193 10.125 9.5C10.125 9.63807 10.0131 9.75 9.875 9.75H5.125C4.98693 9.75 4.875 9.63807 4.875 9.5Z" stroke="white" stroke-width="0.75"/>
<path id="Rectangle 233" d="M4.875 5.00195C4.875 4.86388 4.98693 4.75195 5.125 4.75195H13.625C13.7631 4.75195 13.875 4.86388 13.875 5.00195C13.875 5.14002 13.7631 5.25195 13.625 5.25195H5.125C4.98693 5.25195 4.875 5.14002 4.875 5.00195Z" stroke="white" stroke-width="0.75"/>
</g>
</g>
<defs>
<linearGradient id="paint0_linear_1305_6162" x1="10" y1="0" x2="10" y2="20.0031" gradientUnits="userSpaceOnUse">
<stop stop-color="#9AE3FF"/>
<stop offset="1" stop-color="#31C6FF"/>
</linearGradient>
<clipPath id="clip0_1305_6162">
<rect width="20" height="20" fill="white"/>
</clipPath>
</defs>
</svg>
