<svg width="20" height="20" viewBox="0 0 20 20" fill="none" xmlns="http://www.w3.org/2000/svg">
<g id="&#231;&#179;&#187;&#231;&#187;&#159;&#229;&#155;&#190;&#230;&#160;&#135;/&#229;&#134;&#133;&#229;&#174;&#185;&#229;&#155;&#190;&#230;&#160;&#135;" clip-path="url(#clip0_1216_19583)">
<g id="Group 15">
<path id="Rectangle 219" d="M0.75 3C0.75 1.75736 1.75736 0.75 3 0.75H7.29844C7.58228 0.75 7.85767 0.846601 8.07931 1.02391L8.54062 0.447272L8.07931 1.02391L11.9837 4.14739C12.4713 4.53748 13.0771 4.75 13.7016 4.75H17C18.2426 4.75 19.25 5.75736 19.25 7V17C19.25 18.2426 18.2426 19.25 17 19.25H3C1.75736 19.25 0.75 18.2426 0.75 17V3Z" stroke="#666666" stroke-width="1.5"/>
<rect id="Rectangle 229" x="4" y="10.4014" width="9" height="1.5" rx="0.75" fill="#666666"/>
<rect id="Rectangle 230" x="4" y="13.4014" width="6" height="1.5" rx="0.75" fill="#666666"/>
</g>
</g>
<defs>
<clipPath id="clip0_1216_19583">
<rect width="20" height="20" fill="white"/>
</clipPath>
</defs>
</svg>
