<svg width="20" height="20" viewBox="0 0 20 20" fill="none" xmlns="http://www.w3.org/2000/svg">
<g id="&#231;&#179;&#187;&#231;&#187;&#159;&#230;&#181;&#133;&#232;&#137;&#178;&#229;&#155;&#190;&#230;&#160;&#135;/&#228;&#188;&#129;&#228;&#184;&#154;&#232;&#182;&#133;&#229;&#184;&#130;" clip-path="url(#clip0_1296_6487)">
<g id="Group 18">
<rect id="Rectangle 219" x="0.75" y="2.75" width="16.5" height="4.5" rx="1.25" stroke="#666666" stroke-width="1.5"/>
<path id="Rectangle 220" d="M1.75 7.25H16.25V18C16.25 18.6904 15.6904 19.25 15 19.25H3C2.30964 19.25 1.75 18.6904 1.75 18V7.25Z" stroke="#666666" stroke-width="1.5"/>
<g id="Rectangle 221">
<mask id="path-3-inside-1_1296_6487" fill="white">
<path d="M5.5 15C5.5 13.8954 6.39543 13 7.5 13H10.5C11.6046 13 12.5 13.8954 12.5 15V20.5H5.5V15Z"/>
</mask>
<path d="M4 15C4 13.067 5.567 11.5 7.5 11.5H10.5C12.433 11.5 14 13.067 14 15H11C11 14.7239 10.7761 14.5 10.5 14.5H7.5C7.22386 14.5 7 14.7239 7 15H4ZM12.5 20.5H5.5H12.5ZM4 20.5V15C4 13.067 5.567 11.5 7.5 11.5V14.5C7.22386 14.5 7 14.7239 7 15V20.5H4ZM10.5 11.5C12.433 11.5 14 13.067 14 15V20.5H11V15C11 14.7239 10.7761 14.5 10.5 14.5V11.5Z" fill="#666666" mask="url(#path-3-inside-1_1296_6487)"/>
</g>
</g>
</g>
<defs>
<clipPath id="clip0_1296_6487">
<rect width="20" height="20" fill="white"/>
</clipPath>
</defs>
</svg>
