<svg width="20" height="20" viewBox="0 0 20 20" fill="none" xmlns="http://www.w3.org/2000/svg">
<g id="&#231;&#179;&#187;&#231;&#187;&#159;&#230;&#181;&#133;&#232;&#137;&#178;&#229;&#155;&#190;&#230;&#160;&#135;/&#228;&#188;&#129;&#228;&#184;&#154;&#232;&#182;&#133;&#229;&#184;&#130;&#233;&#128;&#137;&#228;&#184;&#173;" clip-path="url(#clip0_1305_6155)">
<g id="Group 18">
<path id="Rectangle 224" d="M1 7H17V18C17 19.1046 16.1046 20 15 20H3C1.89543 20 1 19.1046 1 18V7Z" fill="url(#paint0_linear_1305_6155)"/>
<rect id="Rectangle 223" y="2" width="18" height="6" rx="2" fill="url(#paint1_linear_1305_6155)"/>
<g id="Rectangle 225">
<mask id="path-3-inside-1_1305_6155" fill="white">
<path d="M5.5 15C5.5 13.8954 6.39543 13 7.5 13H10.5C11.6046 13 12.5 13.8954 12.5 15V20.5H5.5V15Z"/>
</mask>
<path d="M4 15C4 13.067 5.567 11.5 7.5 11.5H10.5C12.433 11.5 14 13.067 14 15H11C11 14.7239 10.7761 14.5 10.5 14.5H7.5C7.22386 14.5 7 14.7239 7 15H4ZM12.5 20.5H5.5H12.5ZM4 20.5V15C4 13.067 5.567 11.5 7.5 11.5V14.5C7.22386 14.5 7 14.7239 7 15V20.5H4ZM10.5 11.5C12.433 11.5 14 13.067 14 15V20.5H11V15C11 14.7239 10.7761 14.5 10.5 14.5V11.5Z" fill="white" mask="url(#path-3-inside-1_1305_6155)"/>
</g>
</g>
</g>
<defs>
<linearGradient id="paint0_linear_1305_6155" x1="9" y1="7" x2="9" y2="20" gradientUnits="userSpaceOnUse">
<stop stop-color="#9AE3FF"/>
<stop offset="1" stop-color="#31C6FF"/>
</linearGradient>
<linearGradient id="paint1_linear_1305_6155" x1="9" y1="2" x2="9" y2="8" gradientUnits="userSpaceOnUse">
<stop stop-color="#9AE3FF"/>
<stop offset="1" stop-color="#31C6FF"/>
</linearGradient>
<clipPath id="clip0_1305_6155">
<rect width="20" height="20" fill="white"/>
</clipPath>
</defs>
</svg>
