<svg width="20" height="20" viewBox="0 0 20 20" fill="none" xmlns="http://www.w3.org/2000/svg">
<g id="&#231;&#179;&#187;&#231;&#187;&#159;&#230;&#181;&#133;&#232;&#137;&#178;&#229;&#155;&#190;&#230;&#160;&#135;/&#229;&#174;&#137;&#229;&#133;&#168;&#232;&#174;&#190;&#231;&#189;&#174;&#233;&#128;&#137;&#228;&#184;&#173;">
<g id="Group 19">
<path id="Rectangle 233" d="M0 3.80217C0 3.33347 0.325532 2.92766 0.78307 2.82598L4.30455 2.04343C4.43452 2.01455 4.56129 1.97276 4.68296 1.91868L8.18772 0.361012C8.70485 0.131176 9.29515 0.131176 9.81228 0.361012L13.317 1.91868C13.4387 1.97276 13.5655 2.01455 13.6955 2.04343L17.2169 2.82598C17.6745 2.92766 18 3.33347 18 3.80217V11C18 15.9706 13.9706 20 9 20C4.02944 20 0 15.9706 0 11V3.80217Z" fill="url(#paint0_linear_1305_6204)"/>
<rect id="Rectangle 231" x="4.5" y="9.40234" width="9.5" height="1.5" rx="0.75" fill="white"/>
<rect id="Rectangle 232" x="8.5" y="15.4004" width="9.5" height="1.5" rx="0.75" transform="rotate(-90 8.5 15.4004)" fill="white"/>
</g>
</g>
<defs>
<linearGradient id="paint0_linear_1305_6204" x1="9" y1="0" x2="9" y2="20" gradientUnits="userSpaceOnUse">
<stop stop-color="#9AE3FF"/>
<stop offset="1" stop-color="#31C6FF"/>
</linearGradient>
</defs>
</svg>
