<svg width="20" height="20" viewBox="0 0 20 20" fill="none" xmlns="http://www.w3.org/2000/svg">
<g id="&#231;&#179;&#187;&#231;&#187;&#159;&#229;&#155;&#190;&#230;&#160;&#135;/&#229;&#174;&#137;&#229;&#133;&#168;&#229;&#155;&#190;&#230;&#160;&#135;" clip-path="url(#clip0_1216_19670)">
<g id="Group 19">
<path id="Rectangle 233" d="M0.75 3.8198C0.75 3.70063 0.834115 3.59803 0.950971 3.57466L4.96703 2.77145C5.13174 2.73851 5.29308 2.69054 5.44903 2.62816L9.53576 0.99347C9.83378 0.874265 10.1662 0.874265 10.4642 0.99347L14.551 2.62816C14.7069 2.69054 14.8683 2.73851 15.033 2.77145L19.049 3.57466C19.1659 3.59803 19.25 3.70063 19.25 3.8198V10C19.25 15.1086 15.1086 19.25 10 19.25C4.89137 19.25 0.75 15.1086 0.75 10V3.8198Z" stroke="#666666" stroke-width="1.5"/>
<rect id="Rectangle 231" x="5.5" y="9.40137" width="9" height="1.5" rx="0.75" fill="#666666"/>
<rect id="Rectangle 232" x="9.5" y="14.4014" width="9" height="1.5" rx="0.75" transform="rotate(-90 9.5 14.4014)" fill="#666666"/>
</g>
</g>
<defs>
<clipPath id="clip0_1216_19670">
<rect width="20" height="20" fill="white"/>
</clipPath>
</defs>
</svg>
