<svg width="20" height="20" viewBox="0 0 20 20" fill="none" xmlns="http://www.w3.org/2000/svg">
<g id="&#231;&#179;&#187;&#231;&#187;&#159;&#230;&#181;&#133;&#232;&#137;&#178;&#229;&#155;&#190;&#230;&#160;&#135;/SEO&#232;&#174;&#190;&#231;&#189;&#174;&#233;&#128;&#137;&#228;&#184;&#173;" clip-path="url(#clip0_1305_6171)">
<g id="Group 14">
<path id="Rectangle 244" d="M0 6H20V18C20 19.1046 19.1046 20 18 20H2C0.895431 20 0 19.1046 0 18V6Z" fill="url(#paint0_linear_1305_6171)"/>
<path id="Rectangle 245" d="M0 2C0 0.89543 0.895431 0 2 0H18C19.1046 0 20 0.895431 20 2V6H0V2Z" fill="url(#paint1_linear_1305_6171)"/>
<path id="seo" d="M6.84375 13.978C6.84375 13.9074 6.82324 13.8436 6.78223 13.7866C6.74121 13.7297 6.66488 13.6772 6.55322 13.6294C6.44385 13.5793 6.28548 13.5337 6.07812 13.4927C5.89128 13.4517 5.71696 13.4004 5.55518 13.3389C5.39567 13.2751 5.25667 13.1987 5.13818 13.1099C5.02197 13.021 4.93083 12.9162 4.86475 12.7954C4.79867 12.6724 4.76562 12.5322 4.76562 12.375C4.76562 12.2201 4.79867 12.0742 4.86475 11.9375C4.93311 11.8008 5.02995 11.68 5.15527 11.5752C5.28288 11.4681 5.43783 11.3849 5.62012 11.3257C5.80469 11.2642 6.01204 11.2334 6.24219 11.2334C6.56348 11.2334 6.83919 11.2847 7.06934 11.3872C7.30176 11.4897 7.47949 11.631 7.60254 11.811C7.72786 11.9888 7.79053 12.1916 7.79053 12.4194H6.80615C6.80615 12.3237 6.78564 12.2383 6.74463 12.1631C6.70589 12.0856 6.64437 12.0252 6.56006 11.9819C6.47803 11.9364 6.37093 11.9136 6.23877 11.9136C6.12939 11.9136 6.03483 11.9329 5.95508 11.9717C5.87533 12.0081 5.8138 12.0583 5.77051 12.1221C5.72949 12.1836 5.70898 12.252 5.70898 12.3271C5.70898 12.3841 5.72038 12.4354 5.74316 12.481C5.76823 12.5243 5.80811 12.5641 5.86279 12.6006C5.91748 12.637 5.98812 12.6712 6.07471 12.7031C6.16357 12.7327 6.27295 12.7601 6.40283 12.7852C6.66943 12.8398 6.90755 12.9116 7.11719 13.0005C7.32682 13.0871 7.49316 13.2056 7.61621 13.356C7.73926 13.5041 7.80078 13.6989 7.80078 13.9404C7.80078 14.1045 7.76432 14.2549 7.69141 14.3916C7.61849 14.5283 7.51367 14.6479 7.37695 14.7505C7.24023 14.8507 7.07617 14.9294 6.88477 14.9863C6.69564 15.041 6.48258 15.0684 6.24561 15.0684C5.90153 15.0684 5.60986 15.0068 5.37061 14.8838C5.13363 14.7607 4.95361 14.6047 4.83057 14.4155C4.7098 14.2241 4.64941 14.0282 4.64941 13.8276H5.58252C5.58708 13.9621 5.62126 14.0703 5.68506 14.1523C5.75114 14.2344 5.83431 14.2936 5.93457 14.3301C6.03711 14.3665 6.14762 14.3848 6.26611 14.3848C6.39372 14.3848 6.49967 14.3677 6.58398 14.3335C6.66829 14.297 6.7321 14.2492 6.77539 14.1899C6.82096 14.1284 6.84375 14.0578 6.84375 13.978ZM10.1421 15.0684C9.85498 15.0684 9.59749 15.0228 9.36963 14.9316C9.14176 14.8382 8.94808 14.7095 8.78857 14.5454C8.63135 14.3813 8.51058 14.1911 8.42627 13.9746C8.34196 13.7559 8.2998 13.5234 8.2998 13.2773V13.1406C8.2998 12.8604 8.33968 12.604 8.41943 12.3716C8.49919 12.1392 8.61312 11.9375 8.76123 11.7666C8.91162 11.5957 9.09391 11.4647 9.30811 11.3735C9.5223 11.2801 9.76383 11.2334 10.0327 11.2334C10.2948 11.2334 10.5272 11.2767 10.73 11.3633C10.9328 11.4499 11.1025 11.5729 11.2393 11.7324C11.3783 11.8919 11.4831 12.0833 11.5537 12.3066C11.6243 12.5277 11.6597 12.7738 11.6597 13.0449V13.4551H8.72021V12.7988H10.6924V12.7236C10.6924 12.5869 10.6673 12.465 10.6172 12.3579C10.5693 12.2485 10.4964 12.1619 10.3984 12.0981C10.3005 12.0343 10.1751 12.0024 10.0225 12.0024C9.89258 12.0024 9.78092 12.0309 9.6875 12.0879C9.59408 12.1449 9.51774 12.2246 9.4585 12.3271C9.40153 12.4297 9.35824 12.5505 9.32861 12.6895C9.30127 12.8262 9.2876 12.9766 9.2876 13.1406V13.2773C9.2876 13.4255 9.30811 13.5622 9.34912 13.6875C9.39242 13.8128 9.4528 13.9211 9.53027 14.0122C9.61003 14.1034 9.70573 14.174 9.81738 14.2241C9.93132 14.2743 10.0601 14.2993 10.2036 14.2993C10.3813 14.2993 10.5465 14.2651 10.6992 14.1968C10.8542 14.1261 10.9875 14.0202 11.0991 13.8789L11.5776 14.3984C11.5002 14.5101 11.3942 14.6172 11.2598 14.7197C11.1276 14.8223 10.9681 14.9066 10.7812 14.9727C10.5944 15.0365 10.3813 15.0684 10.1421 15.0684ZM12.063 13.1885V13.1167C12.063 12.8455 12.1017 12.596 12.1792 12.3682C12.2567 12.138 12.3695 11.9386 12.5176 11.77C12.6657 11.6014 12.848 11.4704 13.0645 11.377C13.2809 11.2812 13.5293 11.2334 13.8096 11.2334C14.0898 11.2334 14.3394 11.2812 14.5581 11.377C14.7769 11.4704 14.9603 11.6014 15.1084 11.77C15.2588 11.9386 15.3727 12.138 15.4502 12.3682C15.5277 12.596 15.5664 12.8455 15.5664 13.1167V13.1885C15.5664 13.4574 15.5277 13.7069 15.4502 13.937C15.3727 14.1649 15.2588 14.3643 15.1084 14.5352C14.9603 14.7038 14.778 14.8348 14.5615 14.9282C14.3451 15.0216 14.0967 15.0684 13.8164 15.0684C13.5361 15.0684 13.2866 15.0216 13.0679 14.9282C12.8514 14.8348 12.668 14.7038 12.5176 14.5352C12.3695 14.3643 12.2567 14.1649 12.1792 13.937C12.1017 13.7069 12.063 13.4574 12.063 13.1885ZM13.0474 13.1167V13.1885C13.0474 13.3434 13.061 13.4881 13.0884 13.6226C13.1157 13.757 13.159 13.8755 13.2183 13.978C13.2798 14.0783 13.3595 14.1569 13.4575 14.2139C13.5555 14.2708 13.6751 14.2993 13.8164 14.2993C13.9531 14.2993 14.0705 14.2708 14.1685 14.2139C14.2664 14.1569 14.3451 14.0783 14.4043 13.978C14.4635 13.8755 14.5068 13.757 14.5342 13.6226C14.5638 13.4881 14.5786 13.3434 14.5786 13.1885V13.1167C14.5786 12.9663 14.5638 12.825 14.5342 12.6929C14.5068 12.5584 14.4624 12.4399 14.4009 12.3374C14.3416 12.2326 14.263 12.1506 14.165 12.0913C14.0671 12.0321 13.9486 12.0024 13.8096 12.0024C13.6706 12.0024 13.5521 12.0321 13.4541 12.0913C13.3584 12.1506 13.2798 12.2326 13.2183 12.3374C13.159 12.4399 13.1157 12.5584 13.0884 12.6929C13.061 12.825 13.0474 12.9663 13.0474 13.1167Z" fill="white"/>
<circle id="Ellipse 51" cx="3.5" cy="3.125" r="0.625" fill="white"/>
<circle id="Ellipse 52" cx="6" cy="3.125" r="0.625" fill="white"/>
<circle id="Ellipse 53" cx="8.5" cy="3.125" r="0.625" fill="white"/>
</g>
</g>
<defs>
<linearGradient id="paint0_linear_1305_6171" x1="10" y1="6" x2="10" y2="20" gradientUnits="userSpaceOnUse">
<stop stop-color="#9AE3FF"/>
<stop offset="1" stop-color="#31C6FF"/>
</linearGradient>
<linearGradient id="paint1_linear_1305_6171" x1="10" y1="0" x2="10" y2="6" gradientUnits="userSpaceOnUse">
<stop stop-color="#9AE3FF"/>
<stop offset="1" stop-color="#31C6FF"/>
</linearGradient>
<clipPath id="clip0_1305_6171">
<rect width="20" height="20" fill="white"/>
</clipPath>
</defs>
</svg>
