<svg width="20" height="20" viewBox="0 0 20 20" fill="none" xmlns="http://www.w3.org/2000/svg">
<g id="&#231;&#179;&#187;&#231;&#187;&#159;&#229;&#155;&#190;&#230;&#160;&#135;/SEO&#229;&#155;&#190;&#230;&#160;&#135;" clip-path="url(#clip0_1216_19630)">
<g id="Group 14">
<path id="Rectangle 225" d="M0.75 2C0.75 1.30964 1.30964 0.75 2 0.75H18C18.6904 0.75 19.25 1.30964 19.25 2V18C19.25 18.6904 18.6904 19.25 18 19.25H2C1.30964 19.25 0.75 18.6904 0.75 18V2Z" stroke="#666666" stroke-width="1.5"/>
<path id="Rectangle 226" d="M0.75 2C0.75 1.30964 1.30964 0.75 2 0.75H18C18.6904 0.75 19.25 1.30964 19.25 2V5.5H0.75V2Z" stroke="#666666" stroke-width="1.5"/>
<path id="seo" d="M5.93799 13.188C5.93799 13.0972 5.91162 13.0151 5.85889 12.9419C5.80615 12.8687 5.70801 12.8013 5.56445 12.7397C5.42383 12.6753 5.22021 12.6167 4.95361 12.564C4.71338 12.5112 4.48926 12.4453 4.28125 12.3662C4.07617 12.2842 3.89746 12.186 3.74512 12.0718C3.5957 11.9575 3.47852 11.8228 3.39355 11.6675C3.30859 11.5093 3.26611 11.3291 3.26611 11.127C3.26611 10.9277 3.30859 10.7402 3.39355 10.5645C3.48145 10.3887 3.60596 10.2334 3.76709 10.0986C3.93115 9.96094 4.13037 9.854 4.36475 9.77783C4.60205 9.69873 4.86865 9.65918 5.16455 9.65918C5.57764 9.65918 5.93213 9.7251 6.22803 9.85693C6.52686 9.98877 6.75537 10.1704 6.91357 10.4019C7.07471 10.6304 7.15527 10.8911 7.15527 11.1841H5.88965C5.88965 11.061 5.86328 10.9512 5.81055 10.8545C5.76074 10.7549 5.68164 10.6772 5.57324 10.6216C5.46777 10.563 5.33008 10.5337 5.16016 10.5337C5.01953 10.5337 4.89795 10.5586 4.79541 10.6084C4.69287 10.6553 4.61377 10.7197 4.55811 10.8018C4.50537 10.8809 4.479 10.9688 4.479 11.0654C4.479 11.1387 4.49365 11.2046 4.52295 11.2632C4.55518 11.3188 4.60645 11.3701 4.67676 11.417C4.74707 11.4639 4.83789 11.5078 4.94922 11.5488C5.06348 11.5869 5.2041 11.6221 5.37109 11.6543C5.71387 11.7246 6.02002 11.8169 6.28955 11.9312C6.55908 12.0425 6.77295 12.1948 6.93115 12.3882C7.08936 12.5786 7.16846 12.8291 7.16846 13.1396C7.16846 13.3506 7.12158 13.5439 7.02783 13.7197C6.93408 13.8955 6.79932 14.0493 6.62354 14.1812C6.44775 14.3101 6.23682 14.4111 5.99072 14.4844C5.74756 14.5547 5.47363 14.5898 5.16895 14.5898C4.72656 14.5898 4.35156 14.5107 4.04395 14.3525C3.73926 14.1943 3.50781 13.9937 3.34961 13.7505C3.19434 13.5044 3.1167 13.2524 3.1167 12.9946H4.31641C4.32227 13.1675 4.36621 13.3066 4.44824 13.4121C4.5332 13.5176 4.64014 13.5938 4.76904 13.6406C4.90088 13.6875 5.04297 13.7109 5.19531 13.7109C5.35938 13.7109 5.49561 13.689 5.604 13.645C5.7124 13.5981 5.79443 13.5366 5.8501 13.4604C5.90869 13.3813 5.93799 13.2905 5.93799 13.188ZM10.1787 14.5898C9.80957 14.5898 9.47852 14.5312 9.18555 14.4141C8.89258 14.2939 8.64355 14.1284 8.43848 13.9175C8.23633 13.7065 8.08105 13.4619 7.97266 13.1836C7.86426 12.9023 7.81006 12.6035 7.81006 12.2871V12.1113C7.81006 11.751 7.86133 11.4214 7.96387 11.1226C8.06641 10.8237 8.21289 10.5645 8.40332 10.3447C8.59668 10.125 8.83105 9.95654 9.10645 9.83936C9.38184 9.71924 9.69238 9.65918 10.0381 9.65918C10.375 9.65918 10.6738 9.71484 10.9346 9.82617C11.1953 9.9375 11.4136 10.0957 11.5894 10.3008C11.7681 10.5059 11.9028 10.752 11.9937 11.0391C12.0845 11.3232 12.1299 11.6396 12.1299 11.9883V12.5156H8.35059V11.6719H10.8862V11.5752C10.8862 11.3994 10.854 11.2427 10.7896 11.105C10.728 10.9644 10.6343 10.853 10.5083 10.771C10.3823 10.689 10.2212 10.6479 10.0249 10.6479C9.85791 10.6479 9.71436 10.6846 9.59424 10.7578C9.47412 10.8311 9.37598 10.9336 9.2998 11.0654C9.22656 11.1973 9.1709 11.3525 9.13281 11.5312C9.09766 11.707 9.08008 11.9004 9.08008 12.1113V12.2871C9.08008 12.4775 9.10645 12.6533 9.15918 12.8145C9.21484 12.9756 9.29248 13.1147 9.39209 13.2319C9.49463 13.3491 9.61768 13.4399 9.76123 13.5044C9.90771 13.5688 10.0732 13.6011 10.2578 13.6011C10.4863 13.6011 10.6987 13.5571 10.895 13.4692C11.0942 13.3784 11.2656 13.2422 11.4092 13.0605L12.0244 13.7285C11.9248 13.8721 11.7886 14.0098 11.6157 14.1416C11.4458 14.2734 11.2407 14.3818 11.0005 14.4668C10.7603 14.5488 10.4863 14.5898 10.1787 14.5898ZM12.6484 12.1729V12.0806C12.6484 11.7319 12.6982 11.4111 12.7979 11.1182C12.8975 10.8223 13.0425 10.5659 13.2329 10.3491C13.4233 10.1323 13.6577 9.96387 13.936 9.84375C14.2144 9.7207 14.5337 9.65918 14.894 9.65918C15.2544 9.65918 15.5752 9.7207 15.8564 9.84375C16.1377 9.96387 16.3735 10.1323 16.564 10.3491C16.7573 10.5659 16.9038 10.8223 17.0034 11.1182C17.103 11.4111 17.1528 11.7319 17.1528 12.0806V12.1729C17.1528 12.5186 17.103 12.8394 17.0034 13.1353C16.9038 13.4282 16.7573 13.6846 16.564 13.9043C16.3735 14.1211 16.1392 14.2896 15.8608 14.4097C15.5825 14.5298 15.2632 14.5898 14.9028 14.5898C14.5425 14.5898 14.2217 14.5298 13.9404 14.4097C13.6621 14.2896 13.4263 14.1211 13.2329 13.9043C13.0425 13.6846 12.8975 13.4282 12.7979 13.1353C12.6982 12.8394 12.6484 12.5186 12.6484 12.1729ZM13.9141 12.0806V12.1729C13.9141 12.3721 13.9316 12.5581 13.9668 12.731C14.002 12.9038 14.0576 13.0562 14.1338 13.188C14.2129 13.3169 14.3154 13.418 14.4414 13.4912C14.5674 13.5645 14.7212 13.6011 14.9028 13.6011C15.0786 13.6011 15.2295 13.5645 15.3555 13.4912C15.4814 13.418 15.5825 13.3169 15.6587 13.188C15.7349 13.0562 15.7905 12.9038 15.8257 12.731C15.8638 12.5581 15.8828 12.3721 15.8828 12.1729V12.0806C15.8828 11.8872 15.8638 11.7056 15.8257 11.5356C15.7905 11.3628 15.7334 11.2104 15.6543 11.0786C15.5781 10.9438 15.4771 10.8384 15.3511 10.7622C15.2251 10.686 15.0728 10.6479 14.894 10.6479C14.7153 10.6479 14.563 10.686 14.437 10.7622C14.314 10.8384 14.2129 10.9438 14.1338 11.0786C14.0576 11.2104 14.002 11.3628 13.9668 11.5356C13.9316 11.7056 13.9141 11.8872 13.9141 12.0806Z" fill="#666666"/>
<circle id="Ellipse 48" cx="3.5" cy="3.125" r="0.625" fill="#666666"/>
<circle id="Ellipse 49" cx="6" cy="3.125" r="0.625" fill="#666666"/>
<circle id="Ellipse 50" cx="8.5" cy="3.125" r="0.625" fill="#666666"/>
</g>
</g>
<defs>
<clipPath id="clip0_1216_19630">
<rect width="20" height="20" fill="white"/>
</clipPath>
</defs>
</svg>
