<svg width="20" height="20" viewBox="0 0 20 20" fill="none" xmlns="http://www.w3.org/2000/svg">
<g id="&#231;&#179;&#187;&#231;&#187;&#159;&#229;&#155;&#190;&#230;&#160;&#135;/&#232;&#174;&#190;&#231;&#189;&#174;&#229;&#155;&#190;&#230;&#160;&#135;" clip-path="url(#clip0_1216_19696)">
<g id="Group 20">
<g id="Exclude">
<mask id="path-1-inside-1_1216_19696" fill="white">
<path fill-rule="evenodd" clip-rule="evenodd" d="M12.1633 0.234613C11.4667 0.0809871 10.7428 4.02361e-09 10 0C9.26459 -2.06419e-08 8.5477 0.0793888 7.85746 0.230064L7.85751 0.230145C3.36421 1.21097 0 5.21265 0 10.0001C0 11.2062 0.213524 12.3624 0.604834 13.4331L0.604761 13.4331C0.881479 14.1901 1.24711 14.9044 1.68898 15.5632C1.24713 14.9044 0.881536 14.1901 0.604834 13.4331C0.733463 13.4127 0.865359 13.4021 0.999731 13.4021C2.38044 13.4021 3.49973 14.5213 3.49973 15.9021C3.49973 16.3967 3.35606 16.8578 3.10816 17.246C3.0477 17.1884 2.98794 17.1302 2.92893 17.0712C4.73858 18.8808 7.23858 20.0001 10 20.0001C12.6713 20.0001 15.098 18.9527 16.8917 17.2461L16.8918 17.2462C17.9966 16.1951 18.8613 14.8939 19.3952 13.4333L19.3951 13.4333C19.7864 12.3626 20 11.2063 20 10.0001C20 9.09267 19.8791 8.21348 19.6526 7.37773C18.4363 7.20867 17.5 6.16452 17.5 4.90167C17.5 4.47841 17.6051 4.07971 17.7908 3.7303C16.3902 1.9921 14.4198 0.732321 12.1633 0.234703L12.1633 0.234613ZM19.3951 13.4333C19.2665 13.4129 19.1346 13.4023 19.0002 13.4023C17.6195 13.4023 16.5002 14.5216 16.5002 15.9023C16.5002 16.3969 16.6439 16.858 16.8917 17.2461C17.9965 16.195 18.8612 14.8938 19.3951 13.4333ZM12.1633 0.234703C12.0948 0.350039 12.016 0.46137 11.927 0.567476C11.0395 1.62516 9.46262 1.76312 8.40494 0.875618C8.18084 0.687577 7.99802 0.468587 7.85751 0.230145C8.54773 0.0794799 9.26459 9.58597e-05 10 9.58597e-05C10.7428 9.58597e-05 11.4667 0.0810813 12.1633 0.234703ZM0.347473 7.37788C0.71354 6.02721 1.35553 4.79002 2.20921 3.73056C2.39483 4.07995 2.5 4.47861 2.5 4.90183C2.5 6.16463 1.56372 7.20875 0.347473 7.37788ZM10 19.9999C10.7076 19.9999 11.3981 19.9264 12.0642 19.7866C11.9879 19.6494 11.8974 19.5174 11.7927 19.3926C10.9052 18.3349 9.32835 18.197 8.27066 19.0845C8.0439 19.2747 7.85942 19.4967 7.71825 19.7384C8.45114 19.9095 9.21501 19.9999 10 19.9999Z"/>
</mask>
<path fill-rule="evenodd" clip-rule="evenodd" d="M12.1633 0.234613C11.4667 0.0809871 10.7428 4.02361e-09 10 0C9.26459 -2.06419e-08 8.5477 0.0793888 7.85746 0.230064L7.85751 0.230145C3.36421 1.21097 0 5.21265 0 10.0001C0 11.2062 0.213524 12.3624 0.604834 13.4331L0.604761 13.4331C0.881479 14.1901 1.24711 14.9044 1.68898 15.5632C1.24713 14.9044 0.881536 14.1901 0.604834 13.4331C0.733463 13.4127 0.865359 13.4021 0.999731 13.4021C2.38044 13.4021 3.49973 14.5213 3.49973 15.9021C3.49973 16.3967 3.35606 16.8578 3.10816 17.246C3.0477 17.1884 2.98794 17.1302 2.92893 17.0712C4.73858 18.8808 7.23858 20.0001 10 20.0001C12.6713 20.0001 15.098 18.9527 16.8917 17.2461L16.8918 17.2462C17.9966 16.1951 18.8613 14.8939 19.3952 13.4333L19.3951 13.4333C19.7864 12.3626 20 11.2063 20 10.0001C20 9.09267 19.8791 8.21348 19.6526 7.37773C18.4363 7.20867 17.5 6.16452 17.5 4.90167C17.5 4.47841 17.6051 4.07971 17.7908 3.7303C16.3902 1.9921 14.4198 0.732321 12.1633 0.234703L12.1633 0.234613ZM19.3951 13.4333C19.2665 13.4129 19.1346 13.4023 19.0002 13.4023C17.6195 13.4023 16.5002 14.5216 16.5002 15.9023C16.5002 16.3969 16.6439 16.858 16.8917 17.2461C17.9965 16.195 18.8612 14.8938 19.3951 13.4333ZM12.1633 0.234703C12.0948 0.350039 12.016 0.46137 11.927 0.567476C11.0395 1.62516 9.46262 1.76312 8.40494 0.875618C8.18084 0.687577 7.99802 0.468587 7.85751 0.230145C8.54773 0.0794799 9.26459 9.58597e-05 10 9.58597e-05C10.7428 9.58597e-05 11.4667 0.0810813 12.1633 0.234703ZM0.347473 7.37788C0.71354 6.02721 1.35553 4.79002 2.20921 3.73056C2.39483 4.07995 2.5 4.47861 2.5 4.90183C2.5 6.16463 1.56372 7.20875 0.347473 7.37788ZM10 19.9999C10.7076 19.9999 11.3981 19.9264 12.0642 19.7866C11.9879 19.6494 11.8974 19.5174 11.7927 19.3926C10.9052 18.3349 9.32835 18.197 8.27066 19.0845C8.0439 19.2747 7.85942 19.4967 7.71825 19.7384C8.45114 19.9095 9.21501 19.9999 10 19.9999Z" fill="white"/>
<path d="M10 0V1.5V0ZM12.1633 0.234613L13.4516 1.00298L14.5165 -0.78248L12.4864 -1.23019L12.1633 0.234613ZM7.85746 0.230064L7.53755 -1.23543L5.51157 -0.793169L6.56574 0.992593L7.85746 0.230064ZM0.604761 13.4331L0.372864 11.9511L-1.43082 12.2333L-0.804077 13.948L0.604761 13.4331ZM1.68898 15.5632L0.443247 16.3987L2.93474 14.7277L1.68898 15.5632ZM3.10816 17.246L2.07423 18.3327L3.39269 19.5871L4.3723 18.0534L3.10816 17.246ZM2.92893 17.0712L3.98957 16.0105L1.86827 18.1318L2.92893 17.0712ZM16.8918 17.2462L15.6348 18.0647L16.619 19.5761L17.9257 18.3329L16.8918 17.2462ZM19.3952 13.4333L20.804 13.9483L21.4309 12.2332L19.6268 11.9513L19.3952 13.4333ZM19.6526 7.37773L21.1004 6.98535L20.8411 6.0285L19.8591 5.89202L19.6526 7.37773ZM17.7908 3.7303L19.1154 4.43412L19.5799 3.55995L18.9588 2.78914L17.7908 3.7303ZM11.927 0.567476L10.778 -0.396708L10.7779 -0.396705L11.927 0.567476ZM8.40494 0.875618L9.36912 -0.273448L9.36912 -0.27345L8.40494 0.875618ZM2.20921 3.73056L3.53387 3.0268L2.4674 1.01943L1.0412 2.78942L2.20921 3.73056ZM0.347473 7.37788L-1.1003 6.98549L-1.69403 9.17619L0.554066 8.86358L0.347473 7.37788ZM12.0642 19.7866L12.3723 21.2547L14.3645 20.8366L13.3751 19.0576L12.0642 19.7866ZM11.7927 19.3926L12.9418 18.4284L12.9418 18.4284L11.7927 19.3926ZM8.27066 19.0845L9.23484 20.2335L9.23484 20.2335L8.27066 19.0845ZM7.71825 19.7384L6.42294 18.982L5.39795 20.7372L7.37733 21.1992L7.71825 19.7384ZM10 1.5C10.6335 1.5 11.2491 1.56903 11.8403 1.69942L12.4864 -1.23019C11.6843 -1.40706 10.8522 -1.5 10 -1.5V1.5ZM8.17736 1.69555C8.76319 1.56767 9.37284 1.5 10 1.5V-1.5C9.15634 -1.5 8.33222 -1.40889 7.53755 -1.23543L8.17736 1.69555ZM9.14923 -0.532384L9.14918 -0.532466L6.56574 0.992593L6.56578 0.992675L9.14923 -0.532384ZM1.5 10.0001C1.5 5.93261 4.35847 2.52925 8.1774 1.69564L7.53761 -1.23535C2.36994 -0.107321 -1.5 4.4927 -1.5 10.0001H1.5ZM2.01368 12.9181C1.68179 12.0101 1.5 11.028 1.5 10.0001H-1.5C-1.5 11.3844 -1.25474 12.7148 -0.804013 13.948L2.01368 12.9181ZM0.836658 14.915L0.836731 14.915L0.372937 11.9511L0.372864 11.9511L0.836658 14.915ZM2.93472 14.7276C2.55899 14.1675 2.24847 13.5607 2.0136 12.9181L-0.804077 13.948C-0.485509 14.8196 -0.06478 15.6413 0.443247 16.3987L2.93472 14.7276ZM-0.804013 13.948C-0.485473 14.8195 -0.0647874 15.6413 0.443225 16.3987L2.93474 14.7277C2.55904 14.1675 2.24854 13.5607 2.01368 12.9181L-0.804013 13.948ZM0.999731 11.9021C0.786343 11.9021 0.575845 11.9189 0.369748 11.9516L0.83992 14.9145C0.89108 14.9064 0.944375 14.9021 0.999731 14.9021V11.9021ZM4.99973 15.9021C4.99973 13.6929 3.20887 11.9021 0.999731 11.9021V14.9021C1.55202 14.9021 1.99973 15.3498 1.99973 15.9021H4.99973ZM4.3723 18.0534C4.76962 17.4313 4.99973 16.6913 4.99973 15.9021H1.99973C1.99973 16.1022 1.94249 16.2844 1.84402 16.4385L4.3723 18.0534ZM1.86829 18.1318C1.93621 18.1998 2.00487 18.2667 2.07423 18.3327L4.14209 16.1592C4.09052 16.1102 4.03967 16.0606 3.98957 16.0105L1.86829 18.1318ZM10 18.5001C7.65237 18.5001 5.52943 17.5503 3.98959 16.0105L1.86827 18.1318C3.94772 20.2113 6.82478 21.5001 10 21.5001V18.5001ZM15.8578 16.1594C14.3317 17.6112 12.2713 18.5001 10 18.5001V21.5001C13.0713 21.5001 15.8642 20.2941 17.9256 18.3328L15.8578 16.1594ZM15.6347 18.0646L15.6348 18.0647L18.1488 16.4277L18.1487 16.4276L15.6347 18.0646ZM17.9257 18.3329C19.1948 17.1255 20.1895 15.6296 20.804 13.9483L17.9864 12.9184C17.5332 14.1581 16.7984 15.2646 15.8579 16.1594L17.9257 18.3329ZM19.6268 11.9513L19.6266 11.9513L19.1635 14.9153L19.1636 14.9153L19.6268 11.9513ZM18.5 10.0001C18.5 11.0281 18.3182 12.0102 17.9862 12.9183L20.8039 13.9483C21.2547 12.715 21.5 11.3845 21.5 10.0001H18.5ZM18.2049 7.77011C18.397 8.47912 18.5 9.22641 18.5 10.0001H21.5C21.5 8.95894 21.3613 7.94784 21.1004 6.98535L18.2049 7.77011ZM16 4.90167C16 6.92349 17.4986 8.59275 19.4461 8.86345L19.8591 5.89202C19.3741 5.82459 19 5.40555 19 4.90167H16ZM16.4662 3.02648C16.1682 3.58735 16 4.22708 16 4.90167H19C19 4.72973 19.0421 4.57208 19.1154 4.43412L16.4662 3.02648ZM11.8402 1.69951C13.7546 2.12168 15.4302 3.19141 16.6228 4.67146L18.9588 2.78914C17.3502 0.792787 15.0849 -0.657039 12.4863 -1.2301L11.8402 1.69951ZM10.8751 -0.533755L10.875 -0.533665L13.4515 1.00307L13.4516 1.00298L10.8751 -0.533755ZM19.6302 11.9518C19.4241 11.9191 19.2136 11.9023 19.0002 11.9023V14.9023C19.0556 14.9023 19.1088 14.9066 19.16 14.9148L19.6302 11.9518ZM19.0002 11.9023C16.7911 11.9023 15.0002 13.6932 15.0002 15.9023H18.0002C18.0002 15.35 18.4479 14.9023 19.0002 14.9023V11.9023ZM15.0002 15.9023C15.0002 16.6914 15.2303 17.4315 15.6275 18.0535L18.1559 16.4387C18.0574 16.2846 18.0002 16.1024 18.0002 15.9023H15.0002ZM17.9862 12.9183C17.5331 14.158 16.7983 15.2645 15.8578 16.1594L17.9256 18.3328C19.1947 17.1254 20.1894 15.6296 20.8039 13.9483L17.9862 12.9183ZM13.0761 1.53166C13.2175 1.36315 13.3432 1.1855 13.453 1.00066L10.8736 -0.53126C10.8463 -0.485421 10.8146 -0.440412 10.778 -0.396708L13.0761 1.53166ZM7.44075 2.02468C9.13305 3.44469 11.6561 3.22396 13.0761 1.53166L10.7779 -0.396705C10.4229 0.0263699 9.79219 0.0815531 9.36912 -0.273448L7.44075 2.02468ZM6.56522 0.991713C6.79108 1.37498 7.08425 1.72554 7.44076 2.02469L9.36912 -0.27345C9.27742 -0.350389 9.20497 -0.437805 9.1498 -0.531423L6.56522 0.991713ZM10 -1.4999C9.15635 -1.4999 8.33225 -1.4088 7.53761 -1.23535L8.1774 1.69564C8.76321 1.56776 9.37284 1.5001 10 1.5001V-1.4999ZM12.4863 -1.2301C11.6843 -1.40697 10.8521 -1.4999 10 -1.4999V1.5001C10.6334 1.5001 11.249 1.56913 11.8402 1.69951L12.4863 -1.2301ZM1.0412 2.78942C0.0601609 4.00694 -0.678767 5.43019 -1.1003 6.98549L1.79524 7.77026C2.10585 6.62423 2.65091 5.5731 3.37722 4.67171L1.0412 2.78942ZM4 4.90183C4 4.22731 3.83182 3.58763 3.53387 3.0268L0.884551 4.43432C0.95784 4.57227 0.999996 4.72991 0.999996 4.90183H4ZM0.554066 8.86358C2.50149 8.59279 4 6.92357 4 4.90183H0.999996C0.999996 5.4057 0.62594 5.82472 0.140881 5.89217L0.554066 8.86358ZM11.7561 18.3186C11.1908 18.4373 10.6035 18.4999 10 18.4999V21.4999C10.8118 21.4999 11.6055 21.4156 12.3723 21.2547L11.7561 18.3186ZM10.6437 20.3568C10.6868 20.4081 10.7231 20.4614 10.7533 20.5157L13.3751 19.0576C13.2527 18.8374 13.1081 18.6266 12.9418 18.4284L10.6437 20.3568ZM9.23484 20.2335C9.65792 19.8785 10.2887 19.9337 10.6437 20.3568L12.9418 18.4284C11.5218 16.7361 8.99878 16.5154 7.30648 17.9354L9.23484 20.2335ZM9.01356 20.4949C9.06898 20.3999 9.14208 20.3114 9.23484 20.2335L7.30648 17.9354C6.94573 18.2381 6.64985 18.5934 6.42294 18.982L9.01356 20.4949ZM10 18.4999C9.33059 18.4999 8.68109 18.4228 8.05916 18.2777L7.37733 21.1992C8.22118 21.3961 9.09942 21.4999 10 21.4999V18.4999Z" fill="#666666" mask="url(#path-1-inside-1_1216_19696)"/>
</g>
<circle id="Ellipse 52" cx="10" cy="9.90137" r="2.75" stroke="#666666" stroke-width="1.5"/>
</g>
</g>
<defs>
<clipPath id="clip0_1216_19696">
<rect width="20" height="20" fill="white"/>
</clipPath>
</defs>
</svg>
