<svg width="20" height="20" viewBox="0 0 20 20" fill="none" xmlns="http://www.w3.org/2000/svg">
<g id="&#231;&#179;&#187;&#231;&#187;&#159;&#230;&#181;&#133;&#232;&#137;&#178;&#229;&#155;&#190;&#230;&#160;&#135;/&#229;&#159;&#186;&#230;&#156;&#172;&#232;&#174;&#190;&#231;&#189;&#174;&#233;&#128;&#137;&#228;&#184;&#173;" clip-path="url(#clip0_1309_5930)">
<g id="Group 20">
<path id="Exclude" fill-rule="evenodd" clip-rule="evenodd" d="M12.1652 0.235018C11.468 0.0811292 10.7435 0 10 0C9.26394 0 8.5464 0.0795356 7.85557 0.230483L7.85588 0.231022C3.3634 1.21245 0 5.21375 0 10.0006C0 14.7387 3.29515 18.7071 7.71881 19.7393C7.71849 19.7398 7.71818 19.7403 7.71786 19.7409C8.45088 19.912 9.21489 20.0025 10 20.0025C10.7078 20.0025 11.3984 19.9289 12.0646 19.7891C12.0643 19.7886 12.064 19.788 12.0637 19.7874C16.5964 18.8365 20 14.816 20 10.0006C20 9.09352 19.8792 8.21464 19.6529 7.37917L19.6531 7.3792C19.2872 6.02806 18.6452 4.79043 17.7914 3.73062L17.7911 3.73115C16.3908 1.99319 14.4208 0.733466 12.1649 0.235576L12.1652 0.235018ZM17.7911 3.73115C18.6449 4.7908 19.2869 6.02823 19.6529 7.37917C18.4364 7.21022 17.4999 6.16601 17.4999 4.90306C17.4999 4.47959 17.6052 4.0807 17.7911 3.73115ZM12.0637 19.7874C11.9874 19.6505 11.8972 19.5189 11.7927 19.3944C10.9052 18.3367 9.32835 18.1987 8.27066 19.0862C8.0442 19.2763 7.85991 19.4979 7.71881 19.7393C8.45153 19.9102 9.21521 20.0006 10 20.0006C10.7074 20.0006 11.3977 19.9272 12.0637 19.7874ZM12.1649 0.235576C12.096 0.351883 12.0167 0.464132 11.927 0.571073C11.0395 1.62876 9.4626 1.76672 8.40491 0.879215C8.17996 0.690458 7.99661 0.470518 7.85588 0.231022C8.5466 0.0801267 9.26402 0.000618257 10 0.000618257C10.7434 0.000618257 11.4678 0.0817269 12.1649 0.235576ZM0.346895 7.38135C0.712798 6.03024 1.35479 4.79264 2.20859 3.73285C2.39458 4.0825 2.49996 4.48156 2.49996 4.90522C2.49996 6.16821 1.5634 7.21246 0.346895 7.38135ZM3.10934 17.2465C2.00462 16.1957 1.13988 14.895 0.605805 13.435C0.73419 13.4147 0.865828 13.4041 0.999931 13.4041C2.38064 13.4041 3.49993 14.5234 3.49993 15.9041C3.49993 16.3981 3.35664 16.8587 3.10934 17.2465ZM19.3949 13.433C18.861 14.8935 17.9962 16.1946 16.8914 17.2457C16.6436 16.8576 16.5 16.3966 16.5 15.902C16.5 14.5213 17.6192 13.402 19 13.402C19.1343 13.402 19.2662 13.4126 19.3949 13.433Z" fill="url(#paint0_linear_1309_5930)"/>
<circle id="Ellipse 52" cx="10" cy="10" r="3.25" stroke="white" stroke-width="1.5"/>
</g>
</g>
<defs>
<linearGradient id="paint0_linear_1309_5930" x1="10" y1="0" x2="10" y2="20.0024" gradientUnits="userSpaceOnUse">
<stop stop-color="#9AE3FF"/>
<stop offset="1" stop-color="#31C6FF"/>
</linearGradient>
<clipPath id="clip0_1309_5930">
<rect width="20" height="20" fill="white"/>
</clipPath>
</defs>
</svg>
