<svg width="20" height="20" viewBox="0 0 20 20" fill="none" xmlns="http://www.w3.org/2000/svg">
<g id="&#231;&#179;&#187;&#231;&#187;&#159;&#230;&#181;&#133;&#232;&#137;&#178;&#229;&#155;&#190;&#230;&#160;&#135;/&#231;&#148;&#168;&#230;&#136;&#183;&#231;&#174;&#161;&#231;&#144;&#134;&#233;&#128;&#137;&#228;&#184;&#173;" clip-path="url(#clip0_1305_6199)">
<path id="Rectangle 197" d="M6 1C6 0.447715 6.44772 0 7 0H10.5C12.9853 0 15 2.01472 15 4.5C15 6.98528 12.9853 9 10.5 9C8.01472 9 6 6.98528 6 4.5V1Z" fill="url(#paint0_linear_1305_6199)"/>
<path id="Rectangle 200" d="M0 15C0 12.7909 1.79086 11 4 11H16C18.2091 11 20 12.7909 20 15V18C20 19.1046 19.1046 20 18 20H2C0.895431 20 0 19.1046 0 18V15Z" fill="url(#paint1_linear_1305_6199)"/>
<rect id="Rectangle 201" x="9" y="12.5977" width="2" height="5" rx="1" fill="white"/>
</g>
<defs>
<linearGradient id="paint0_linear_1305_6199" x1="10.5" y1="0" x2="10.5" y2="9" gradientUnits="userSpaceOnUse">
<stop stop-color="#9AE3FF"/>
<stop offset="1" stop-color="#31C6FF"/>
</linearGradient>
<linearGradient id="paint1_linear_1305_6199" x1="10" y1="11" x2="10" y2="20" gradientUnits="userSpaceOnUse">
<stop stop-color="#9AE3FF"/>
<stop offset="1" stop-color="#31C6FF"/>
</linearGradient>
<clipPath id="clip0_1305_6199">
<rect width="20" height="20" fill="white"/>
</clipPath>
</defs>
</svg>
