<svg width="20" height="20" viewBox="0 0 20 20" fill="none" xmlns="http://www.w3.org/2000/svg">
<g id="&#231;&#179;&#187;&#231;&#187;&#159;&#229;&#155;&#190;&#230;&#160;&#135;/&#231;&#148;&#168;&#230;&#136;&#183;&#229;&#155;&#190;&#230;&#160;&#135;" clip-path="url(#clip0_1216_19662)">
<g id="Rectangle 197">
<mask id="path-1-inside-1_1216_19662" fill="white">
<path d="M6 1C6 0.447715 6.44772 0 7 0H10.5C12.9853 0 15 2.01472 15 4.5C15 6.98528 12.9853 9 10.5 9C8.01472 9 6 6.98528 6 4.5V1Z"/>
</mask>
<path d="M6 1C6 0.447715 6.44772 0 7 0H10.5C12.9853 0 15 2.01472 15 4.5C15 6.98528 12.9853 9 10.5 9C8.01472 9 6 6.98528 6 4.5V1Z" stroke="#666666" stroke-width="3" mask="url(#path-1-inside-1_1216_19662)"/>
</g>
<path id="Rectangle 200" d="M0.75 14.5986C0.75 12.8037 2.20507 11.3486 4 11.3486H16C17.7949 11.3486 19.25 12.8037 19.25 14.5986V17.5986C19.25 18.289 18.6904 18.8486 18 18.8486H2C1.30964 18.8486 0.75 18.289 0.75 17.5986V14.5986Z" stroke="#666666" stroke-width="1.5"/>
<rect id="Rectangle 201" x="9" y="13.5986" width="2" height="3" rx="1" fill="#666666"/>
</g>
<defs>
<clipPath id="clip0_1216_19662">
<rect width="20" height="20" fill="white"/>
</clipPath>
</defs>
</svg>
