<svg width="20" height="21" viewBox="0 0 20 21" fill="none" xmlns="http://www.w3.org/2000/svg">
<g id="&#229;&#155;&#190;&#230;&#160;&#135;">
<rect id="Rectangle 219" x="1.75" y="2.75" width="16.5" height="4.5" rx="1.25" stroke="#0EABB5" stroke-width="1.5"/>
<path id="Rectangle 220" d="M2.75 7.25H17.25V18C17.25 18.6904 16.6904 19.25 16 19.25H4C3.30964 19.25 2.75 18.6904 2.75 18V7.25Z" stroke="#0EABB5" stroke-width="1.5"/>
<g id="Rectangle 221">
<mask id="path-3-inside-1_1965_31186" fill="white">
<path d="M6.5 14C6.5 12.8954 7.39543 12 8.5 12H11.5C12.6046 12 13.5 12.8954 13.5 14V19.5H6.5V14Z"/>
</mask>
<path d="M5 14C5 12.067 6.567 10.5 8.5 10.5H11.5C13.433 10.5 15 12.067 15 14H12C12 13.7239 11.7761 13.5 11.5 13.5H8.5C8.22386 13.5 8 13.7239 8 14H5ZM13.5 19.5H6.5H13.5ZM5 19.5V14C5 12.067 6.567 10.5 8.5 10.5V13.5C8.22386 13.5 8 13.7239 8 14V19.5H5ZM11.5 10.5C13.433 10.5 15 12.067 15 14V19.5H12V14C12 13.7239 11.7761 13.5 11.5 13.5V10.5Z" fill="#0EABB5" mask="url(#path-3-inside-1_1965_31186)"/>
</g>
</g>
</svg>
