<svg width="20" height="21" viewBox="0 0 20 21" fill="none" xmlns="http://www.w3.org/2000/svg">
<g id="&#229;&#155;&#190;&#230;&#160;&#135;" clip-path="url(#clip0_1965_31101)">
<g id="Exclude">
<mask id="path-1-inside-1_1965_31101" fill="white">
<path fill-rule="evenodd" clip-rule="evenodd" d="M12.1652 0.735018C11.468 0.581129 10.7435 0.5 10 0.5C9.26394 0.5 8.5464 0.579536 7.85557 0.730483L7.85588 0.731022C3.3634 1.71245 0 5.71375 0 10.5006C0 15.2387 3.29515 19.2071 7.71881 20.2393C7.71849 20.2398 7.71818 20.2403 7.71786 20.2409C8.45088 20.412 9.21489 20.5025 10 20.5025C10.7078 20.5025 11.3984 20.4289 12.0646 20.2891C12.0643 20.2886 12.064 20.288 12.0637 20.2874C16.5964 19.3365 20 15.316 20 10.5006C20 9.59352 19.8792 8.71464 19.6529 7.87917L19.6531 7.8792C19.2872 6.52806 18.6452 5.29043 17.7914 4.23062L17.7911 4.23115C16.3908 2.49319 14.4208 1.23347 12.1649 0.735576L12.1652 0.735018ZM17.7911 4.23115C18.6449 5.2908 19.2869 6.52823 19.6529 7.87917C18.4364 7.71022 17.4999 6.66601 17.4999 5.40306C17.4999 4.97959 17.6052 4.5807 17.7911 4.23115ZM12.0637 20.2874C11.9874 20.1505 11.8972 20.0189 11.7927 19.8944C10.9052 18.8367 9.32835 18.6987 8.27066 19.5862C8.0442 19.7763 7.85991 19.9979 7.71881 20.2393C8.45153 20.4102 9.21521 20.5006 10 20.5006C10.7074 20.5006 11.3977 20.4272 12.0637 20.2874ZM12.1649 0.735576C12.096 0.851883 12.0167 0.964132 11.927 1.07107C11.0395 2.12876 9.4626 2.26672 8.40491 1.37921C8.17996 1.19046 7.99661 0.970518 7.85588 0.731022C8.5466 0.580127 9.26402 0.500618 10 0.500618C10.7434 0.500618 11.4678 0.581727 12.1649 0.735576ZM0.346895 7.88135C0.712798 6.53024 1.35479 5.29264 2.20859 4.23285C2.39458 4.5825 2.49996 4.98156 2.49996 5.40522C2.49996 6.66821 1.5634 7.71246 0.346895 7.88135ZM3.10934 17.7465C2.00462 16.6957 1.13988 15.395 0.605805 13.935C0.73419 13.9147 0.865828 13.9041 0.999931 13.9041C2.38064 13.9041 3.49993 15.0234 3.49993 16.4041C3.49993 16.8981 3.35664 17.3587 3.10934 17.7465ZM19.3949 13.933C18.861 15.3935 17.9962 16.6946 16.8914 17.7457C16.6436 17.3576 16.5 16.8966 16.5 16.402C16.5 15.0213 17.6192 13.902 19 13.902C19.1343 13.902 19.2662 13.9126 19.3949 13.933Z"/>
</mask>
<path d="M12.1652 0.735018L13.4558 1.49939L14.5115 -0.283179L12.4885 -0.729724L12.1652 0.735018ZM7.85557 0.730483L7.53537 -0.734944L5.51378 -0.293227L6.56245 1.49065L7.85557 0.730483ZM7.71786 20.2409L6.42253 19.4845L5.39769 21.2396L7.37688 21.7016L7.71786 20.2409ZM12.0646 20.2891L12.3727 21.7571L14.3657 21.3388L13.3752 19.5595L12.0646 20.2891ZM19.6531 7.8792L19.4461 9.36485L21.6943 9.67812L21.101 7.4871L19.6531 7.8792ZM17.7914 4.23062L18.9594 3.28956L17.5303 1.51564L16.4654 3.52938L17.7914 4.23062ZM11.7927 19.8944L10.6437 20.8586L10.6437 20.8586L11.7927 19.8944ZM8.27066 19.5862L9.23484 20.7353L9.23484 20.7353L8.27066 19.5862ZM11.927 1.07107L13.0761 2.03525V2.03525L11.927 1.07107ZM8.40491 1.37921L9.36909 0.230148L9.36909 0.230147L8.40491 1.37921ZM2.20859 4.23285L3.53289 3.52842L2.46589 1.52249L1.04049 3.2918L2.20859 4.23285ZM0.346895 7.88135L-1.10095 7.48924L-1.69399 9.67907L0.553161 9.3671L0.346895 7.88135ZM0.605805 13.935L0.371185 12.4534L-1.42907 12.7385L-0.802902 14.4503L0.605805 13.935ZM3.10934 17.7465L2.07557 18.8333L3.395 20.0883L4.37407 18.553L3.10934 17.7465ZM16.8914 17.7457L15.6272 18.553L16.6067 20.0869L17.9253 18.8325L16.8914 17.7457ZM19.3949 13.933L20.8037 14.448L21.4291 12.7371L19.6299 12.4515L19.3949 13.933ZM10 2C10.6341 2 11.2502 2.06915 11.8419 2.19976L12.4885 -0.729724C11.6858 -0.906896 10.8529 -1 10 -1V2ZM8.17576 2.19591C8.76208 2.0678 9.37228 2 10 2V-1C9.15559 -1 8.33071 -0.908726 7.53537 -0.734944L8.17576 2.19591ZM9.14899 -0.029149L9.14868 -0.0296884L6.56245 1.49065L6.56277 1.49119L9.14899 -0.029149ZM1.5 10.5006C1.5 6.43363 4.35778 3.03059 8.17602 2.19646L7.53574 -0.734416C2.36901 0.39431 -1.5 4.99388 -1.5 10.5006H1.5ZM8.05964 18.7785C4.29965 17.9012 1.5 14.526 1.5 10.5006H-1.5C-1.5 15.9513 2.29066 20.513 7.37798 21.7L8.05964 18.7785ZM9.0132 20.9972L9.01365 20.9965L6.42397 19.482C6.42406 19.4819 6.4242 19.4816 6.42387 19.4822C6.42367 19.4825 6.42314 19.4834 6.42253 19.4845L9.0132 20.9972ZM10 19.0025C9.3305 19.0025 8.68088 18.9253 8.05885 18.7801L7.37688 21.7016C8.22088 21.8986 9.09929 22.0025 10 22.0025V19.0025ZM11.7565 18.8211C11.191 18.9398 10.6036 19.0025 10 19.0025V22.0025C10.812 22.0025 11.6058 21.9181 12.3727 21.7571L11.7565 18.8211ZM10.7531 21.0171C10.7538 21.0183 10.7544 21.0195 10.7545 21.0196C10.7547 21.02 10.7544 21.0194 10.754 21.0187L13.3752 19.5595C13.3745 19.5582 13.3738 19.5571 13.3738 19.5569C13.3735 19.5565 13.3739 19.5571 13.3743 19.5578L10.7531 21.0171ZM18.5 10.5006C18.5 14.5919 15.608 18.0112 11.7557 18.8194L12.3717 21.7555C17.5848 20.6617 21.5 16.0401 21.5 10.5006H18.5ZM18.2051 8.27141C18.3971 8.98019 18.5 9.72721 18.5 10.5006H21.5C21.5 9.45984 21.3614 8.4491 21.1007 7.48693L18.2051 8.27141ZM19.8601 6.39355L19.8599 6.39352L19.4459 9.36481L19.4461 9.36485L19.8601 6.39355ZM16.6233 5.17167C17.3497 6.07336 17.8948 7.12486 18.2053 8.2713L21.101 7.4871C20.6796 5.93125 19.9407 4.50749 18.9594 3.28956L16.6233 5.17167ZM19.1171 4.93239L19.1174 4.93185L16.4654 3.52938L16.4651 3.52992L19.1171 4.93239ZM11.8416 2.20033C13.7555 2.62273 15.4307 3.69242 16.623 5.17227L18.9591 3.29004C17.3508 1.29396 15.0861 -0.1558 12.4881 -0.729176L11.8416 2.20033ZM10.8745 -0.0293521L10.8742 -0.028795L13.4555 1.49995L13.4558 1.49939L10.8745 -0.0293521ZM21.1007 7.48692C20.6792 5.93131 19.9403 4.50779 18.9591 3.29004L16.623 5.17227C17.3494 6.07382 17.8945 7.12515 18.2051 8.27141L21.1007 7.48692ZM15.9999 5.40306C15.9999 7.42503 17.4988 9.0944 19.4465 9.36491L19.8592 6.39343C19.3741 6.32605 18.9999 5.90699 18.9999 5.40306H15.9999ZM16.4666 3.52701C16.1683 4.08808 15.9999 4.72812 15.9999 5.40306H18.9999C18.9999 5.23105 19.0421 5.07332 19.1155 4.9353L16.4666 3.52701ZM10.6437 20.8586C10.6867 20.9098 10.7229 20.9629 10.7531 21.0171L13.3742 19.5578C13.252 19.3382 13.1077 19.1279 12.9418 18.9302L10.6437 20.8586ZM9.23484 20.7353C9.65792 20.3803 10.2887 20.4355 10.6437 20.8586L12.9418 18.9302C11.5218 17.2379 8.99877 17.0172 7.30648 18.4372L9.23484 20.7353ZM9.01377 20.9963C9.06917 20.9015 9.14219 20.8131 9.23484 20.7353L7.30648 18.4372C6.94621 18.7395 6.65064 19.0943 6.42384 19.4822L9.01377 20.9963ZM10 19.0006C9.33076 19.0006 8.68142 18.9236 8.05964 18.7785L7.37798 21.7C8.22163 21.8969 9.09965 22.0006 10 22.0006V19.0006ZM11.7557 18.8194C11.1904 18.938 10.6033 19.0006 10 19.0006V22.0006C10.8116 22.0006 11.6051 21.9163 12.3717 21.7555L11.7557 18.8194ZM13.0761 2.03525C13.2186 1.86542 13.3451 1.6863 13.4555 1.4999L10.8742 -0.0287458C10.8468 0.0174667 10.8149 0.0628424 10.7779 0.106892L13.0761 2.03525ZM7.44073 2.52828C9.13303 3.94829 11.656 3.72755 13.0761 2.03525L10.7779 0.106891C10.4229 0.529966 9.79217 0.58515 9.36909 0.230148L7.44073 2.52828ZM6.56262 1.49094C6.78883 1.8759 7.08286 2.228 7.44073 2.52828L9.36909 0.230147C9.27705 0.152919 9.20439 0.0651318 9.14914 -0.0288997L6.56262 1.49094ZM10 -0.999382C9.15569 -0.999382 8.33096 -0.908139 7.53574 -0.734416L8.17602 2.19646C8.76225 2.06839 9.37235 2.00062 10 2.00062V-0.999382ZM12.4881 -0.729176C11.6856 -0.906301 10.8528 -0.999382 10 -0.999382V2.00062C10.6339 2.00062 11.25 2.06976 11.8416 2.20033L12.4881 -0.729176ZM1.04049 3.2918C0.059318 4.50971 -0.679611 5.93343 -1.10095 7.48924L1.79474 8.27345C2.10521 7.12704 2.65027 6.07557 3.37668 5.17389L1.04049 3.2918ZM3.99996 5.40522C3.99996 4.72998 3.83143 4.08967 3.53289 3.52842L0.884283 4.93728C0.957719 5.07533 0.999963 5.23313 0.999963 5.40522H3.99996ZM0.553161 9.3671C2.50101 9.09668 3.99996 7.42726 3.99996 5.40522H0.999963C0.999963 5.90917 0.625794 6.32824 0.14063 6.39559L0.553161 9.3671ZM-0.802902 14.4503C-0.188077 16.131 0.806574 17.6264 2.07557 18.8333L4.14312 16.6596C3.20267 15.7651 2.46785 14.659 2.01451 13.4197L-0.802902 14.4503ZM0.999931 12.4041C0.786967 12.4041 0.576885 12.4209 0.371185 12.4534L0.840424 15.4165C0.891495 15.4084 0.944688 15.4041 0.999931 15.4041V12.4041ZM4.99993 16.4041C4.99993 14.195 3.20907 12.4041 0.999931 12.4041V15.4041C1.55222 15.4041 1.99993 15.8518 1.99993 16.4041H4.99993ZM4.37407 18.553C4.77044 17.9314 4.99993 17.1923 4.99993 16.4041H1.99993C1.99993 16.604 1.94284 16.7859 1.84462 16.9399L4.37407 18.553ZM17.9253 18.8325C19.1944 17.6251 20.189 16.1293 20.8037 14.448L17.986 13.418C17.5329 14.6577 16.798 15.7641 15.8575 16.6589L17.9253 18.8325ZM15 16.402C15 17.1911 15.23 17.931 15.6272 18.553L18.1556 16.9384C18.0572 16.7842 18 16.6021 18 16.402H15ZM19 12.402C16.7908 12.402 15 14.1929 15 16.402H18C18 15.8497 18.4477 15.402 19 15.402V12.402ZM19.6299 12.4515C19.4238 12.4188 19.2133 12.402 19 12.402V15.402C19.0553 15.402 19.1086 15.4064 19.1598 15.4145L19.6299 12.4515Z" fill="#FF7A00" mask="url(#path-1-inside-1_1965_31101)"/>
</g>
<circle id="Ellipse 52" cx="10" cy="10.5" r="3.25" stroke="#FF7A00" stroke-width="1.5"/>
</g>
<defs>
<clipPath id="clip0_1965_31101">
<rect width="20" height="20" fill="white" transform="translate(0 0.5)"/>
</clipPath>
</defs>
</svg>
