<svg width="20" height="20" viewBox="0 0 20 20" fill="none" xmlns="http://www.w3.org/2000/svg">
<g id="&#229;&#155;&#190;&#230;&#160;&#135;">
<path id="Rectangle 233" d="M1.75 4.15217C1.75 4.035 1.83138 3.93354 1.94577 3.90812L5.24225 3.17557C5.42096 3.13586 5.59527 3.0784 5.76257 3.00404L9.04233 1.54637C9.36553 1.40272 9.73447 1.40272 10.0577 1.54637L13.3374 3.00404C13.5047 3.0784 13.679 3.13586 13.8578 3.17557L17.1542 3.90812C17.2686 3.93354 17.35 4.035 17.35 4.15217V10.95C17.35 15.2578 13.8578 18.75 9.55 18.75C5.24218 18.75 1.75 15.2578 1.75 10.95V4.15217Z" stroke="#F7665C" stroke-width="1.5"/>
<path id="Union" d="M9.72616 8.40704L9.19583 7.87671L8.6655 8.40704L9.19583 8.93737L9.72616 8.40704ZM11.6492 10.3301L11.1189 10.8604L11.6492 11.3907L12.1795 10.8604L11.6492 10.3301ZM12.3469 5.78635L12.8772 6.31668L13.6637 5.53019L12.6397 5.09589L12.3469 5.78635ZM7.61201 10.5862L8.14234 11.1166L8.50526 10.7537L8.29839 10.2839L7.61201 10.5862ZM5.29289 12.9054L4.76256 12.375H4.76256L5.29289 12.9054ZM5.29289 14.3196L5.82322 13.7892L5.82322 13.7892L5.29289 14.3196ZM5.80171 14.8284L5.27137 15.3587L5.27138 15.3587L5.80171 14.8284ZM7.21592 14.8284L7.74625 15.3587L7.74625 15.3587L7.21592 14.8284ZM9.56051 12.4838L9.84438 11.7896L9.3828 11.6008L9.03018 11.9535L9.56051 12.4838ZM14.2707 7.70858L14.9609 7.41515L14.5261 6.39247L13.7403 7.17825L14.2707 7.70858ZM9.19583 8.93737L11.1189 10.8604L12.1795 9.79974L10.2565 7.87671L9.19583 8.93737ZM11.8165 5.25602L9.19583 7.87671L10.2565 8.93737L12.8772 6.31668L11.8165 5.25602ZM10.9321 6.25C11.3316 6.25 11.7103 6.33102 12.054 6.47682L12.6397 5.09589C12.114 4.87294 11.5365 4.75 10.9321 4.75V6.25ZM8.05602 9.12609C8.05602 7.53767 9.34369 6.25 10.9321 6.25V4.75C8.51527 4.75 6.55602 6.70924 6.55602 9.12609H8.05602ZM8.29839 10.2839C8.14279 9.93066 8.05602 9.5395 8.05602 9.12609H6.55602C6.55602 9.75162 6.68773 10.3484 6.92563 10.8885L8.29839 10.2839ZM5.82322 13.4357L8.14234 11.1166L7.08168 10.0559L4.76256 12.375L5.82322 13.4357ZM5.82322 13.7892C5.72559 13.6916 5.72559 13.5333 5.82322 13.4357L4.76256 12.375C4.07915 13.0584 4.07915 14.1665 4.76256 14.8499L5.82322 13.7892ZM6.33204 14.2981L5.82322 13.7892L4.76256 14.8499L5.27137 15.3587L6.33204 14.2981ZM6.68559 14.2981C6.58796 14.3957 6.42967 14.3957 6.33203 14.2981L5.27138 15.3587C5.95479 16.0421 7.06283 16.0421 7.74625 15.3587L6.68559 14.2981ZM9.03018 11.9535L6.68559 14.2981L7.74625 15.3587L10.0908 13.0141L9.03018 11.9535ZM10.9321 12.0022C10.5457 12.0022 10.1789 11.9264 9.84438 11.7896L9.27664 13.178C9.78831 13.3872 10.3477 13.5022 10.9321 13.5022V12.0022ZM13.8082 9.12609C13.8082 10.7145 12.5205 12.0022 10.9321 12.0022V13.5022C13.349 13.5022 15.3082 11.5429 15.3082 9.12609H13.8082ZM13.5805 8.00201C13.7268 8.34634 13.8082 8.72575 13.8082 9.12609H15.3082C15.3082 8.52044 15.1847 7.9417 14.9609 7.41515L13.5805 8.00201ZM12.1795 10.8604L14.801 8.23891L13.7403 7.17825L11.1189 9.79974L12.1795 10.8604Z" fill="#F7665C"/>
</g>
</svg>
